<?xml version="1.0" encoding="utf-8"?>
<!-- Generator: Adobe Illustrator 26.1.0, SVG Export Plug-In . SVG Version: 6.00 Build 0)  -->
<svg version="1.1" id="Layer_1" xmlns="http://www.w3.org/2000/svg" xmlns:xlink="http://www.w3.org/1999/xlink" x="0px" y="0px"
	 viewBox="0 0 341 168" style="enable-background:new 0 0 341 168;" xml:space="preserve">
<style type="text/css">
	.st0{fill:#CBDEFF;}
	.st1{opacity:0.5;}
	.st2{fill:#EDEDED;}
	.st3{opacity:0.22;clip-path:url(#SVGID_00000066473988679012700460000007195987983109065367_);fill:#4DA8E0;}
	.st4{fill:url(#SVGID_00000112606458018157157970000002362213140703468702_);}
	.st5{fill:url(#SVGID_00000145025995280704579100000015295706567999031487_);}
	.st6{fill:url(#SVGID_00000172438997776168325200000016112572416932038057_);}
	.st7{fill:url(#SVGID_00000009549731264312285680000007750347086675320483_);}
	.st8{fill:#AECEF4;}
	.st9{opacity:0.7;fill:#D9ECFF;}
	.st10{opacity:0.7;fill:#FFFFFF;}
	.st11{fill:url(#SVGID_00000075137364590361965360000007051553795231629474_);}
	.st12{opacity:0.7;}
	.st13{fill:#70A3ED;}
	.st14{fill:#EBF5FF;}
	.st15{fill:url(#SVGID_00000101791588577299857630000010888733365364253835_);}
	.st16{fill:#5889E0;}
	.st17{fill:url(#SVGID_00000102510361911022572440000007749135893798530233_);}
	.st18{fill:url(#SVGID_00000120530062004083390510000002994316778695541163_);}
	.st19{fill:#224F8B;}
	.st20{fill:url(#SVGID_00000059989460126785447160000007271639308485284017_);}
	.st21{fill:#FFFFFF;}
	.st22{fill:#A4C2FF;}
	.st23{fill:#FC4D00;}
	.st24{fill:#FCC038;}
	.st25{fill:#3E8E28;}
	.st26{fill:url(#SVGID_00000025437243743446171570000013908024811673048456_);}
	.st27{fill:#7CC9FF;}
	.st28{fill:url(#SVGID_00000005972576415298357360000008513683651238258816_);}
	.st29{fill:url(#SVGID_00000173871781913880146780000008329968666593880964_);}
	.st30{fill:url(#SVGID_00000029759035267632817490000016946855940969741953_);}
	.st31{fill:url(#SVGID_00000084491489492256027100000005787881471679386029_);}
	.st32{fill:#D9E3FF;}
	.st33{fill:#5E82D3;}
	.st34{fill:url(#SVGID_00000169515822309266241230000015962378286919577006_);}
	.st35{fill:#F0D3A7;}
	.st36{fill:#492C0D;}
	.st37{fill:#75471C;}
	.st38{fill:#6A89D8;}
	.st39{fill:#4667B2;}
	.st40{fill:#B9E9ED;}
	.st41{fill:#A3E3E5;}
	.st42{fill:#98D8D8;}
	.st43{fill:#49290C;}
	.st44{fill:#6D4617;}
	.st45{fill:#7F5324;}
	.st46{fill:#CC4A4A;}
	.st47{fill:#0B1119;}
	.st48{fill:#121D34;}
	.st49{fill:#0A294E;}
	.st50{fill:#474847;}
	.st51{fill:#383838;}
	.st52{fill:#B9BABA;}
	.st53{fill:url(#SVGID_00000006692619582061655140000001543442573698926216_);}
	.st54{fill:url(#SVGID_00000048497552550802599810000005627954104758319292_);}
	.st55{fill:url(#SVGID_00000159464263092078038470000008903286768743572652_);}
	.st56{fill:#494949;}
	.st57{fill:#D3D3D2;}
	.st58{fill:#4D2600;}
	.st59{fill:#FAAD99;}
	.st60{fill:#8BACC9;}
	.st61{fill:#0D658F;}
	.st62{fill:#0A4D6E;}
	.st63{fill:#2B2722;}
	.st64{fill:url(#SVGID_00000116224138143978915960000002494485774489951632_);}
	.st65{fill:#B5CFEA;}
	.st66{fill:#696969;}
	.st67{fill:#575757;}
	.st68{fill:url(#SVGID_00000004536101257701004130000000707108542217095863_);}
	.st69{fill:#16355B;}
	.st70{fill:url(#SVGID_00000111175610429437165010000014088746931778634921_);}
	.st71{fill:url(#SVGID_00000096762770311398030920000015786760308412491681_);}
	.st72{fill:url(#SVGID_00000142155085646045000270000016065870284553364886_);}
	.st73{fill:url(#SVGID_00000070811351644015792310000008000401225278299287_);}
	.st74{fill:url(#SVGID_00000145045771619360751910000003981405479585041038_);}
	.st75{fill:#4DA8E0;}
	.st76{fill:#FFC366;}
	.st77{fill:#5F70B6;}
	.st78{fill:#86A1B2;}
	.st79{fill:#ABC3D6;}
	.st80{fill:#95C0F4;}
</style>
<rect x="0" y="0" class="st0" width="341" height="168"/>
<g class="st1">
	<path class="st2" d="M341,167.9H0V0h341V167.9z M7,160.9h327V7H7V160.9z"/>
</g>
<g>
	<defs>
		<rect id="SVGID_1_" x="0" y="0" width="341" height="168"/>
	</defs>
	<clipPath id="SVGID_00000012472932027861822660000007853404334619665558_">
		<use xlink:href="#SVGID_1_"  style="overflow:visible;"/>
	</clipPath>
	<path style="opacity:0.22;clip-path:url(#SVGID_00000012472932027861822660000007853404334619665558_);fill:#4DA8E0;" d="
		M-79.9,201.3c0.6,1.8,114.9-130.9,280-136.1s194.1-168.3,197.6-166.3c3.5,1.9,70.3,227.9,70.3,227.9S154.9,204.9,146.2,226
		s-222,68.5-222,68.5S-80.4,199.9-79.9,201.3z"/>
</g>
<g>
	<g id="people_at_the_computer_00000044166894395686057920000006303707678784602260_">
		<g id="table_00000114771329580548188230000014578438982476286628_">
			<g>
				
					<linearGradient id="SVGID_00000174563801370305711360000008752063250736094602_" gradientUnits="userSpaceOnUse" x1="921.4647" y1="111.6647" x2="924.7749" y2="111.6647" gradientTransform="matrix(-1 0 0 1 1147.4337 0)">
					<stop  offset="0" style="stop-color:#485B75"/>
					<stop  offset="0.198" style="stop-color:#50637E"/>
					<stop  offset="0.5271" style="stop-color:#647798"/>
					<stop  offset="0.9446" style="stop-color:#8699C1"/>
					<stop  offset="1" style="stop-color:#8B9EC7"/>
				</linearGradient>
				<path style="fill:url(#SVGID_00000174563801370305711360000008752063250736094602_);" d="M222.7,124.5l-0.1-23.1l3.2-3.5
					l0.1,26.6l0,0c0,0.2-0.2,0.5-0.5,0.7c-0.6,0.4-1.7,0.4-2.3,0C222.9,125,222.7,124.7,222.7,124.5z"/>
			</g>
			<g>
				
					<linearGradient id="SVGID_00000035509348421476205270000007681041737701536148_" gradientUnits="userSpaceOnUse" x1="958.3718" y1="133.0208" x2="961.6944" y2="133.0208" gradientTransform="matrix(-1 0 0 1 1147.4337 0)">
					<stop  offset="0" style="stop-color:#485B75"/>
					<stop  offset="0.198" style="stop-color:#50637E"/>
					<stop  offset="0.5271" style="stop-color:#647798"/>
					<stop  offset="0.9446" style="stop-color:#8699C1"/>
					<stop  offset="1" style="stop-color:#8B9EC7"/>
				</linearGradient>
				<path style="fill:url(#SVGID_00000035509348421476205270000007681041737701536148_);" d="M185.8,145.8l-0.1-26.6h3.2l0.1,26.6
					l0,0c0,0.2-0.2,0.5-0.5,0.7c-0.6,0.4-1.7,0.4-2.3,0C186,146.3,185.8,146.1,185.8,145.8z"/>
			</g>
			<g>
				
					<linearGradient id="SVGID_00000090282156590396969520000003926960846771266714_" gradientUnits="userSpaceOnUse" x1="1028.718" y1="91.251" x2="1032.0406" y2="91.251" gradientTransform="matrix(-1 0 0 1 1147.4337 0)">
					<stop  offset="0" style="stop-color:#485B75"/>
					<stop  offset="0.198" style="stop-color:#50637E"/>
					<stop  offset="0.5271" style="stop-color:#647798"/>
					<stop  offset="0.9446" style="stop-color:#8699C1"/>
					<stop  offset="1" style="stop-color:#8B9EC7"/>
				</linearGradient>
				<path style="fill:url(#SVGID_00000090282156590396969520000003926960846771266714_);" d="M115.5,104.1l-0.1-26.6l3.2,1l0.1,25.6
					l0,0c0,0.2-0.2,0.5-0.5,0.7c-0.6,0.4-1.7,0.4-2.3,0C115.6,104.5,115.5,104.3,115.5,104.1z"/>
			</g>
			<g>
				<g id="table_00000087395910140081190920000016888176681641728640_">
					
						<linearGradient id="SVGID_00000063597944316314462090000016414746949650368899_" gradientUnits="userSpaceOnUse" x1="920.2444" y1="88.8855" x2="1032.6133" y2="88.8855" gradientTransform="matrix(-1 0 0 1 1147.4337 0)">
						<stop  offset="0" style="stop-color:#485B75"/>
						<stop  offset="0.198" style="stop-color:#50637E"/>
						<stop  offset="0.5271" style="stop-color:#647798"/>
						<stop  offset="0.9446" style="stop-color:#8699C1"/>
						<stop  offset="1" style="stop-color:#8B9EC7"/>
					</linearGradient>
					<path style="fill:url(#SVGID_00000063597944316314462090000016414746949650368899_);" d="M227,98.5c-0.2,0.1-0.5,0.1-0.7,0
						l-73.2-42.3c-0.2-0.1-0.5-0.1-0.7,0l-36.2,20.9c-0.1,0.1-0.2,0.1-0.4,0.1l-0.2-0.4c-0.4,0-0.8-0.1-0.8,0.3l0,1
						c0,0.2,0.2,0.5,0.4,0.6l73.6,42.5c0.6,0.3,1.2,0.3,1.8,0l36.1-20.8c0.2-0.1,0.3-0.3,0.3-0.6l0.1-1.5L227,98.5z M205.5,109.7
						l-10,5.7l-5.9,3.4c-0.2,0.1-0.5,0.1-0.7,0l-5.9-3.4l-9.9-5.7l-44.2-25.6l-2.8-1.6l-1.2-0.7l-6-3.5l-0.2-0.1l-0.6-0.3
						c-0.5-0.3-0.5-0.9,0-1.2l4.6-2.6l6.2-3.6l18-10.4l5.9-3.4c0.2-0.1,0.5-0.1,0.7,0l5.8,3.4l12.6,7.3l11.5,6.7l7.2,4.1l0.2,0.1
						l6,3.5l1.2,0.7l2.8,1.6l23.5,13.6c0.5,0.3,0.5,0.9,0,1.2L205.5,109.7z"/>
					<path class="st8" d="M226.7,97.6L152.9,55c0,0-0.1,0-0.1,0l-37.6,21.7c-0.3,0.2-0.3,0.7,0,0.9l73.7,42.5c0.6,0.3,1.3,0.3,1.9,0
						l36-20.8C227.4,99,227.4,98,226.7,97.6z M195.6,115.5l-4.7,2.7c-1,0.6-2.2,0.6-3.1,0l-4.7-2.7l-9.9-5.7l-44.2-25.6l-2.8-1.6
						l-1.2-0.7l-6-3.5l-0.2-0.1l-1.4-0.8c-0.1,0-0.1-0.2,0-0.2l5.4-3.1l6.2-3.6l18-10.4l6.1-3.5c0,0,0.1,0,0.1,0l6.1,3.5l12.6,7.3
						l11.5,6.7l7.2,4.1l0.2,0.1l6,3.5l1.2,0.7l2.8,1.6l22.7,13.2c0.8,0.5,0.8,1.6,0,2l-18,10.4L195.6,115.5z"/>
					<path class="st9" d="M223.6,97.4c0.8,0.4,0.7,1.5,0,2l-18.1,10.4l-10,5.7l-6.3,3.6l-6.3-3.6l-9.9-5.7l-44.2-25.6l-2.8-1.6
						l-1.2-0.7l-6-3.5l-0.2-0.1l-1.6-0.9l5.6-3.2l6.2-3.6l18-10.4l6.2-3.6l6.2,3.6l12.6,7.3l11.5,6.7l7.2,4.1l0.2,0.1l6,3.5l1.2,0.7
						l2.8,1.6L223.6,97.4z"/>
					<polygon class="st10" points="172,67.5 177.3,70.5 128.9,70.5 146.9,60.1 159.3,60.1 					"/>
					<path class="st10" d="M190.6,78.3h-71.9l-0.6-0.4c-0.4-0.2-0.4-0.9,0-1.1l4.6-2.7h60.7L190.6,78.3z"/>
					<polygon class="st10" points="200.8,84.1 128.9,84.1 126.1,82.5 125,81.9 196.8,81.9 198,82.5 					"/>
					<polygon class="st10" points="205.5,109.7 195.6,115.5 183,115.5 173.1,109.7 					"/>
					<g>
						
							<linearGradient id="SVGID_00000099621861393635361200000000772294608182178208_" gradientUnits="userSpaceOnUse" x1="-490.8762" y1="139.8904" x2="-459.677" y2="134.1245" gradientTransform="matrix(1 0 0 1 581.3624 0)">
							<stop  offset="0" style="stop-color:#224F8B"/>
							<stop  offset="0.25" style="stop-color:#295594"/>
							<stop  offset="0.6643" style="stop-color:#3C64AE"/>
							<stop  offset="1" style="stop-color:#4F74C7"/>
						</linearGradient>
						<path style="fill:url(#SVGID_00000099621861393635361200000000772294608182178208_);" d="M189.7,121.8l1.5-0.9L189.7,121.8z"
							/>
					</g>
				</g>
				<g id="keyboard_00000021094651028772315430000001462946552642121129_" class="st12">
					<polygon class="st13" points="145.2,85.1 174.4,101.9 182.1,97.5 152.9,80.6 					"/>
					<polygon class="st14" points="179.4,97.2 180.6,97.9 181.2,97.5 180,96.8 					"/>
					<polygon class="st14" points="178,96.4 179.2,97.1 179.8,96.8 178.6,96.1 					"/>
					<polygon class="st14" points="176.7,95.6 177.9,96.3 178.5,96 177.2,95.3 					"/>
					<polygon class="st14" points="175.3,94.8 176.5,95.5 177.1,95.2 175.9,94.5 					"/>
					<polygon class="st14" points="174,94.1 175.2,94.8 175.8,94.4 174.6,93.7 					"/>
					<polygon class="st14" points="172.6,93.3 173.9,94 174.4,93.7 173.2,92.9 					"/>
					<polygon class="st14" points="171.3,92.5 172.5,93.2 173.1,92.9 171.9,92.2 					"/>
					<polygon class="st14" points="169.9,91.7 171.1,92.4 171.7,92.1 170.5,91.4 					"/>
					<polygon class="st14" points="168.6,90.9 169.8,91.6 170.4,91.3 169.1,90.6 					"/>
					<polygon class="st14" points="167.2,90.1 168.4,90.8 169,90.5 167.8,89.8 					"/>
					<polygon class="st14" points="165.8,89.4 167.1,90.1 167.6,89.7 166.4,89 					"/>
					<polygon class="st14" points="164.5,88.6 165.7,89.3 166.3,88.9 165.1,88.2 					"/>
					<polygon class="st14" points="163.1,87.8 164.4,88.5 164.9,88.2 163.7,87.5 					"/>
					<polygon class="st14" points="161.8,87 163,87.7 163.6,87.4 162.4,86.7 					"/>
					<polygon class="st14" points="160.5,86.2 161.7,87 162.3,86.6 161,85.9 					"/>
					<polygon class="st14" points="159.1,85.5 160.3,86.2 160.9,85.8 159.7,85.1 					"/>
					<polygon class="st14" points="157.7,84.7 158.9,85.4 159.5,85 158.3,84.3 					"/>
					<polygon class="st14" points="156.3,83.9 157.6,84.6 158.1,84.2 156.9,83.5 					"/>
					<polygon class="st14" points="155,83.1 156.2,83.8 156.8,83.5 155.6,82.8 					"/>
					<polygon class="st14" points="153.6,82.3 154.8,83 155.4,82.7 154.2,82 					"/>
					<polygon class="st14" points="152.3,81.5 153.5,82.2 154.1,81.9 152.9,81.2 					"/>
					<polygon class="st14" points="155,84.7 156.2,85.4 157.1,84.9 155.9,84.1 					"/>
					<polygon class="st14" points="153.6,83.9 154.8,84.6 155.7,84.1 154.5,83.4 					"/>
					<polygon class="st14" points="152.3,83.1 153.5,83.8 154.4,83.3 153.1,82.6 					"/>
					<polygon class="st14" points="151,82.3 152.2,83 153,82.5 151.8,81.8 					"/>
					<polygon class="st14" points="153.8,85.3 155,86 155.9,85.5 154.7,84.8 					"/>
					<polygon class="st14" points="152.4,84.6 153.6,85.3 154.5,84.8 153.3,84.1 					"/>
					<polygon class="st14" points="151.1,83.8 152.3,84.5 153.2,84 152,83.3 					"/>
					<polygon class="st14" points="152.6,86 153.9,86.7 154.7,86.2 153.5,85.5 					"/>
					<polygon class="st14" points="151.3,85.2 152.5,85.9 153.4,85.4 152.2,84.7 					"/>
					<polygon class="st14" points="149.9,84.4 151.1,85.1 152,84.6 150.8,83.9 					"/>
					<polygon class="st14" points="149,86.5 151.6,88 152.5,87.5 149.9,86 					"/>
					<polygon class="st14" points="147.6,85.8 148.9,86.5 149.7,86 148.5,85.3 					"/>
					<polygon class="st14" points="151.5,86.7 152.7,87.4 153.6,86.9 152.4,86.2 					"/>
					<polygon class="st14" points="150.1,85.9 151.4,86.6 152.2,86.1 151,85.4 					"/>
					<polygon class="st14" points="148.8,85.1 150,85.8 150.9,85.3 149.7,84.6 					"/>
					<polygon class="st14" points="148.6,83.7 149.8,84.4 151.9,83.2 150.6,82.5 					"/>
					<polygon class="st14" points="146.3,85 147.5,85.7 149.6,84.5 148.4,83.8 					"/>
					<polygon class="st14" points="178.1,98 179.3,98.7 180.2,98.2 178.9,97.5 					"/>
					<polygon class="st14" points="176.7,97.2 177.9,97.9 178.8,97.4 177.6,96.7 					"/>
					<polygon class="st14" points="175.3,96.4 176.6,97.1 177.4,96.6 176.2,95.9 					"/>
					<polygon class="st14" points="174,95.6 175.2,96.3 176.1,95.8 174.9,95.1 					"/>
					<polygon class="st14" points="172.7,94.9 173.9,95.6 174.8,95.1 173.6,94.4 					"/>
					<polygon class="st14" points="171.3,94.1 172.5,94.8 173.4,94.3 172.2,93.6 					"/>
					<polygon class="st14" points="170,93.3 171.2,94 172.1,93.5 170.8,92.8 					"/>
					<polygon class="st14" points="168.6,92.5 169.8,93.2 170.7,92.7 169.5,92 					"/>
					<polygon class="st14" points="167.2,91.7 168.5,92.4 169.3,91.9 168.1,91.2 					"/>
					<polygon class="st14" points="165.9,91 167.1,91.7 168,91.1 166.8,90.4 					"/>
					<polygon class="st14" points="164.5,90.2 165.7,90.9 166.6,90.4 165.4,89.7 					"/>
					<polygon class="st14" points="163.2,89.4 164.4,90.1 165.3,89.6 164,88.9 					"/>
					<polygon class="st14" points="161.8,88.6 163,89.3 163.9,88.8 162.7,88.1 					"/>
					<polygon class="st14" points="160.5,87.8 161.7,88.5 162.6,88 161.4,87.3 					"/>
					<polygon class="st14" points="159.1,87 160.3,87.7 161.2,87.2 160,86.5 					"/>
					<polygon class="st14" points="156.4,85.5 159,87 159.8,86.4 157.2,84.9 					"/>
					<polygon class="st14" points="176.9,98.7 178.1,99.4 179,98.9 177.7,98.2 					"/>
					<polygon class="st14" points="175.5,97.9 176.8,98.6 177.6,98.1 176.4,97.4 					"/>
					<polygon class="st14" points="174.2,97.1 175.4,97.8 176.2,97.3 175,96.6 					"/>
					<polygon class="st14" points="172.8,96.3 174,97 174.9,96.6 173.7,95.9 					"/>
					<polygon class="st14" points="171.5,95.6 172.7,96.3 173.6,95.8 172.4,95.1 					"/>
					<polygon class="st14" points="170.2,94.8 171.4,95.5 172.2,95 171,94.3 					"/>
					<polygon class="st14" points="168.8,94 170,94.7 170.9,94.2 169.6,93.5 					"/>
					<polygon class="st14" points="167.4,93.2 168.7,93.9 169.5,93.4 168.3,92.7 					"/>
					<polygon class="st14" points="166.1,92.4 167.3,93.1 168.1,92.7 166.9,92 					"/>
					<polygon class="st14" points="164.7,91.7 165.9,92.4 166.8,91.9 165.6,91.2 					"/>
					<polygon class="st14" points="163.4,90.9 164.6,91.6 165.4,91.1 164.2,90.4 					"/>
					<polygon class="st14" points="162,90.1 163.2,90.8 164.1,90.3 162.8,89.6 					"/>
					<polygon class="st14" points="160.7,89.3 161.9,90 162.7,89.5 161.5,88.8 					"/>
					<polygon class="st14" points="159.3,88.6 160.6,89.3 161.4,88.8 160.2,88.1 					"/>
					<polygon class="st14" points="158,87.8 159.2,88.5 160,88 158.8,87.3 					"/>
					<polygon class="st14" points="156.6,87 157.8,87.7 158.7,87.2 157.5,86.5 					"/>
					<polygon class="st14" points="155.2,86.2 156.4,86.9 157.3,86.4 156.1,85.7 					"/>
					<polygon class="st14" points="174.7,98.7 177,100 177.8,99.5 175.6,98.2 					"/>
					<polygon class="st14" points="173.1,97.7 174.3,98.4 175.1,98 173.9,97.3 					"/>
					<polygon class="st14" points="171.7,97 172.9,97.7 173.7,97.2 172.5,96.5 					"/>
					<polygon class="st14" points="170.4,96.2 171.6,96.9 172.4,96.4 171.2,95.7 					"/>
					<polygon class="st14" points="169,95.4 170.2,96.1 171.1,95.6 169.9,94.9 					"/>
					<polygon class="st14" points="167.7,94.6 168.9,95.3 169.7,94.8 168.5,94.1 					"/>
					<polygon class="st14" points="166.3,93.8 167.5,94.5 168.4,94.1 167.1,93.4 					"/>
					<polygon class="st14" points="164.9,93.1 166.2,93.8 167,93.3 165.8,92.6 					"/>
					<polygon class="st14" points="163.6,92.3 164.8,93 165.6,92.5 164.4,91.8 					"/>
					<polygon class="st14" points="162.2,91.5 163.5,92.2 164.3,91.7 163.1,91 					"/>
					<polygon class="st14" points="160.9,90.7 162.1,91.4 162.9,90.9 161.7,90.2 					"/>
					<polygon class="st14" points="159.5,89.9 160.7,90.6 161.6,90.1 160.4,89.4 					"/>
					<polygon class="st14" points="158.2,89.2 159.4,89.9 160.3,89.4 159,88.7 					"/>
					<polygon class="st14" points="156.8,88.4 158.1,89.1 158.9,88.6 157.7,87.9 					"/>
					<polygon class="st14" points="154.1,86.8 156.7,88.3 157.5,87.8 155,86.3 					"/>
					<polygon class="st14" points="173.6,99.4 175.8,100.7 176.7,100.2 174.4,98.9 					"/>
					<polygon class="st14" points="171.9,98.4 173.1,99.1 174,98.7 172.7,98 					"/>
					<polygon class="st14" points="170.5,97.7 171.8,98.4 172.6,97.9 171.4,97.2 					"/>
					<polygon class="st14" points="169.2,96.9 170.4,97.6 171.3,97.1 170.1,96.4 					"/>
					<polygon class="st14" points="167.9,96.1 169.1,96.8 169.9,96.3 168.7,95.6 					"/>
					<polygon class="st14" points="166.5,95.3 167.7,96 168.6,95.6 167.4,94.9 					"/>
					<polygon class="st14" points="165.2,94.5 166.4,95.3 167.2,94.8 166,94.1 					"/>
					<polygon class="st14" points="163.8,93.8 165,94.5 165.9,94 164.6,93.3 					"/>
					<polygon class="st14" points="162.4,93 163.7,93.7 164.5,93.2 163.3,92.5 					"/>
					<polygon class="st14" points="161.1,92.2 162.3,92.9 163.1,92.4 161.9,91.7 					"/>
					<polygon class="st14" points="159.7,91.4 160.9,92.1 161.8,91.6 160.6,90.9 					"/>
					<polygon class="st14" points="158.4,90.6 159.6,91.3 160.4,90.9 159.2,90.2 					"/>
					<polygon class="st14" points="157.1,89.9 158.3,90.6 159.1,90.1 157.9,89.4 					"/>
					<polygon class="st14" points="155.7,89.1 156.9,89.8 157.8,89.3 156.5,88.6 					"/>
					<polygon class="st14" points="153,87.5 155.6,89 156.4,88.5 153.8,87 					"/>
					<polygon class="st14" points="173.6,100.7 174.8,101.4 175.7,100.9 174.4,100.2 					"/>
					<polygon class="st14" points="172.2,99.9 173.4,100.6 174.3,100.1 173.1,99.4 					"/>
					<polygon class="st14" points="170.8,99.1 172.1,99.8 172.9,99.3 171.7,98.6 					"/>
					<polygon class="st14" points="169.5,98.3 170.7,99 171.6,98.5 170.4,97.8 					"/>
					<polygon class="st14" points="168.2,97.6 169.4,98.3 170.3,97.8 169,97.1 					"/>
					<polygon class="st14" points="166.8,96.8 168,97.5 168.9,97 167.7,96.3 					"/>
					<polygon class="st14" points="165.5,96 166.7,96.7 167.5,96.2 166.3,95.5 					"/>
					<polygon class="st14" points="164.1,95.2 165.3,95.9 166.2,95.4 165,94.7 					"/>
					<polygon class="st14" points="162.7,94.4 164,95.1 164.8,94.6 163.6,93.9 					"/>
					<polygon class="st14" points="161.4,93.6 162.6,94.3 163.5,93.8 162.3,93.1 					"/>
					<polygon class="st14" points="160,92.9 161.2,93.6 162.1,93 160.9,92.3 					"/>
					<polygon class="st14" points="158.7,92.1 159.9,92.8 160.8,92.3 159.5,91.6 					"/>
					<polygon class="st14" points="157.3,91.3 158.5,92 159.4,91.5 158.2,90.8 					"/>
					<polygon class="st14" points="156,90.5 157.2,91.2 158.1,90.7 156.9,90 					"/>
					<polygon class="st14" points="154.6,89.7 155.8,90.4 156.7,89.9 155.5,89.2 					"/>
					<polygon class="st14" points="153.7,89.2 154.5,89.6 155.3,89.1 154.6,88.7 					"/>
					<polygon class="st14" points="151.9,88.2 152.6,88.6 153.5,88.1 152.8,87.7 					"/>
					<polygon class="st14" points="153.3,88.4 154,88.8 154.4,88.6 153.7,88.2 					"/>
					<polygon class="st14" points="152.8,88.7 153.5,89.1 153.9,88.9 153.2,88.5 					"/>
				</g>
				<g>
					
						<linearGradient id="SVGID_00000182523368594212055390000000831765433879260057_" gradientUnits="userSpaceOnUse" x1="956.0489" y1="79.4958" x2="974.7206" y2="79.4958" gradientTransform="matrix(-1 0 0 1 1147.4337 0)">
						<stop  offset="0" style="stop-color:#224F8B"/>
						<stop  offset="0.25" style="stop-color:#295594"/>
						<stop  offset="0.6643" style="stop-color:#3C64AE"/>
						<stop  offset="1" style="stop-color:#4F74C7"/>
					</linearGradient>
					<path style="fill:url(#SVGID_00000182523368594212055390000000831765433879260057_);" d="M178.5,67.7V77c0,2.1-1.1,4.1-3,5.1
						l-2.3,1.6l-0.5-0.3V84l12.6,7.3l2.1-1.2c2.4-1.4,3.9-4,3.9-6.8v-8.1L178.5,67.7z"/>
					<path class="st16" d="M178.3,67.9v9c0,2.1-1.1,4-2.9,5l-2.7,1.5l12.6,7.3l1.8-1c2.4-1.4,3.8-3.9,3.8-6.6v-7.9L178.3,67.9z"/>
					
						<linearGradient id="SVGID_00000116230011614191009020000007669241968123702933_" gradientUnits="userSpaceOnUse" x1="-624.052" y1="75.7982" x2="-616.4285" y2="71.3967" gradientTransform="matrix(1 0 0 1 805.133 0)">
						<stop  offset="0" style="stop-color:#1A5CB0"/>
						<stop  offset="0.2233" style="stop-color:#1A56BC"/>
						<stop  offset="0.6261" style="stop-color:#1947DC"/>
						<stop  offset="1" style="stop-color:#1836FF"/>
					</linearGradient>
					<polygon style="fill:url(#SVGID_00000116230011614191009020000007669241968123702933_);" points="178.3,67.9 178.3,71 
						190.9,79.6 190.9,75.2 					"/>
				</g>
				<g>
					<g>
						
							<linearGradient id="SVGID_00000128479686683256406770000000481841513849471167_" gradientUnits="userSpaceOnUse" x1="-651.4404" y1="57.3075" x2="-589.0727" y2="57.3075" gradientTransform="matrix(1 0 0 1 805.133 0)">
							<stop  offset="0" style="stop-color:#00173F"/>
							<stop  offset="0.996" style="stop-color:#28317A"/>
						</linearGradient>
						<path style="fill:url(#SVGID_00000128479686683256406770000000481841513849471167_);" d="M213.5,53.6L157,21
							c-0.8-0.4-1.4-0.5-1.9-0.2v0l-1.4,0.8l0.8-0.1c0,0.2-0.1,0.4-0.1,0.6v35c0,1.4,1.1,3.2,2.5,4l56.6,32.7
							c0.2,0.1,0.3,0.2,0.5,0.2c0.2,0.1,0.5,0.1,0.7,0.2c0.8,0.1,1.4-0.5,1.4-1.5v-35C216.1,56.2,214.9,54.4,213.5,53.6z"/>
						<path class="st19" d="M214.8,90c0,0-0.2,3.4-0.2,4l-0.5,0.6l1.2-0.7c0,0,0,0,0.1,0h0l0,0c0.4-0.2,0.6-0.7,0.6-1.3v-3.4
							L214.8,90z"/>
					</g>
					
						<linearGradient id="SVGID_00000087375339943782947750000015734530058798452352_" gradientUnits="userSpaceOnUse" x1="716.7297" y1="80.3134" x2="793.9674" y2="35.7202" gradientTransform="matrix(-1 0 0 1 939.3537 0)">
						<stop  offset="0" style="stop-color:#069CFF"/>
						<stop  offset="0.1333" style="stop-color:#29A9FF"/>
						<stop  offset="0.2759" style="stop-color:#47B5FF"/>
						<stop  offset="0.427" style="stop-color:#5FBEFF"/>
						<stop  offset="0.5881" style="stop-color:#6FC4FF"/>
						<stop  offset="0.7661" style="stop-color:#79C8FF"/>
						<stop  offset="0.9944" style="stop-color:#7CC9FF"/>
					</linearGradient>
					<path style="fill:url(#SVGID_00000087375339943782947750000015734530058798452352_);" d="M153.2,22.7v35c0,0.8,0.4,1.7,0.9,2.5
						c0.1,0.1,0.1,0.2,0.2,0.3c0.1,0.1,0.2,0.2,0.3,0.4c0,0,0.1,0.1,0.1,0.1c0.3,0.3,0.6,0.6,1,0.8l56.6,32.7
						c0.2,0.1,0.5,0.2,0.7,0.3c0,0,0.1,0,0.1,0c0,0,0,0,0,0c0.1,0,0.1,0,0.2,0c0,0,0,0,0,0c0.1,0,0.2,0,0.2,0c0,0,0,0,0,0
						c0.1,0,0.1,0,0.2,0c0,0,0,0,0,0c0,0,0,0,0.1,0c0,0,0,0,0,0c0,0,0,0,0,0c0,0,0,0,0.1,0c0,0,0,0,0,0c0,0,0,0,0.1,0c0,0,0,0,0.1,0
						c0,0,0.1,0,0.1-0.1c0,0,0,0,0.1-0.1c0,0,0,0,0,0c0.1,0,0.1-0.1,0.1-0.2c0,0,0,0,0,0c0,0,0-0.1,0.1-0.1c0,0,0,0,0,0
						c0,0,0-0.1,0-0.1c0,0,0,0,0,0c0,0,0-0.1,0-0.1c0,0,0-0.1,0-0.1c0,0,0,0,0,0c0,0,0-0.1,0-0.1c0,0,0,0,0,0c0,0,0-0.1,0-0.1
						c0,0,0,0,0,0c0-0.1,0-0.1,0-0.2v-35c0-0.4-0.1-0.8-0.2-1.2c-0.4-1.1-1.3-2.3-2.3-2.9l-56.6-32.7c-1-0.6-1.9-0.5-2.3,0.2
						C153.3,22,153.2,22.3,153.2,22.7C153.2,22.7,153.2,22.7,153.2,22.7z"/>
					<g>
						<path class="st21" d="M205.5,62.7l3.3,1.9c0.4,0.2,0.7,0,0.7-0.6v-3.7c0-0.5-0.3-1.2-0.7-1.4l-3.3-1.9c-0.4-0.2-0.7,0-0.7,0.6
							v3.7C204.7,61.8,205,62.5,205.5,62.7z"/>
						<path class="st21" d="M201.4,64.9l7.1,4.1c0.3,0.2,0.6,0,0.6-0.5l0,0c0-0.5-0.3-1-0.6-1.2l-7.1-4.1c-0.3-0.2-0.6,0-0.6,0.5
							l0,0C200.8,64.2,201.1,64.7,201.4,64.9z"/>
						<path class="st21" d="M201.4,67.2l7.1,4.1c0.3,0.2,0.6,0,0.6-0.5l0,0c0-0.5-0.3-1-0.6-1.2l-7.1-4.1c-0.3-0.2-0.6,0-0.6,0.5
							l0,0C200.8,66.4,201.1,67,201.4,67.2z"/>
						<path class="st21" d="M201.4,69.4l7.1,4.1c0.3,0.2,0.6,0,0.6-0.5l0,0c0-0.5-0.3-1-0.6-1.2l-7.1-4.1c-0.3-0.2-0.6,0-0.6,0.5
							l0,0C200.8,68.7,201.1,69.2,201.4,69.4z"/>
						<path class="st21" d="M201.4,71.7l7.1,4.1c0.3,0.2,0.6,0,0.6-0.5l0,0c0-0.5-0.3-1-0.6-1.2l-7.1-4.1c-0.3-0.2-0.6,0-0.6,0.5
							l0,0C200.8,70.9,201.1,71.5,201.4,71.7z"/>
						<path class="st21" d="M201.4,73.9l7.1,4.1c0.3,0.2,0.6,0,0.6-0.5l0,0c0-0.5-0.3-1-0.6-1.2l-7.1-4.1c-0.3-0.2-0.6,0-0.6,0.5
							l0,0C200.8,73.2,201.1,73.7,201.4,73.9z"/>
						<path class="st21" d="M201.4,76.1l7.1,4.1c0.3,0.2,0.6,0,0.6-0.5l0,0c0-0.5-0.3-1-0.6-1.2l-7.1-4.1c-0.3-0.2-0.6,0-0.6,0.5
							l0,0C200.8,75.4,201.1,75.9,201.4,76.1z"/>
						<path class="st22" d="M153.1,56c0.3,0.6,0.7,1.1,1.2,1.3l49.2,28.4V85L153.1,56z"/>
						<path class="st23" d="M210.2,56.6c0,0.5,0.3,1,0.7,1.2c0.4,0.2,0.7,0,0.7-0.4c0-0.5-0.3-1-0.7-1.2
							C210.5,56,210.2,56.1,210.2,56.6z"/>
						<path class="st24" d="M208.4,55.6c0,0.5,0.3,1,0.7,1.2c0.4,0.2,0.7,0,0.7-0.4c0-0.5-0.3-1-0.7-1.2
							C208.7,54.9,208.4,55.1,208.4,55.6z"/>
						<path class="st25" d="M206.6,54.5c0,0.5,0.3,1,0.7,1.2c0.4,0.2,0.7,0,0.7-0.4c0-0.5-0.3-1-0.7-1.2
							C206.9,53.9,206.6,54.1,206.6,54.5z"/>
					</g>
					
						<linearGradient id="SVGID_00000016771516845220238990000002178711857058006171_" gradientUnits="userSpaceOnUse" x1="153.1839" y1="74.5863" x2="214.8252" y2="74.5863">
						<stop  offset="0" style="stop-color:#224F8B"/>
						<stop  offset="0.25" style="stop-color:#295594"/>
						<stop  offset="0.6643" style="stop-color:#3C64AE"/>
						<stop  offset="1" style="stop-color:#4F74C7"/>
					</linearGradient>
					<path style="fill:url(#SVGID_00000016771516845220238990000002178711857058006171_);" d="M214.8,90v3.3c0,0.3-0.1,0.6-0.2,0.8
						c-0.2,0.4-0.5,0.6-0.9,0.7c-0.4,0.1-1,0-1.5-0.4l-56.6-32.7c-1.4-0.8-2.5-2.6-2.5-4v-3.3l1.2,0.7L214.8,90z"/>
				</g>
				<g>
					<polygon class="st21" points="169.3,58.4 156.2,50.9 156.2,28.7 169.3,36.3 					"/>
					<path class="st27" d="M166.7,40.6c0,2.5-1.8,3.5-3.9,2.3c-2.2-1.3-3.9-4.3-3.9-6.8s1.8-3.5,3.9-2.3
						C165,35.1,166.7,38.1,166.7,40.6z"/>
					<g>
						
							<linearGradient id="SVGID_00000015346351235763268070000013137824019270937518_" gradientUnits="userSpaceOnUse" x1="160.0109" y1="41.2483" x2="165.5782" y2="41.2483">
							<stop  offset="0" style="stop-color:#F6BF64"/>
							<stop  offset="0.9944" style="stop-color:#F68B55"/>
						</linearGradient>
						<path style="fill:url(#SVGID_00000015346351235763268070000013137824019270937518_);" d="M162,39.2c0,0-0.5-0.1-0.7-0.1
							c-0.1,0.1-1-0.1-1-0.1s-0.4,0.4-0.3,0.8c0,0.4,1.4,2.2,2.8,3s2.6,0.6,2.8,0.2c0-0.1-0.3-1.2-0.6-1.6c-0.3-0.3-0.6-0.7-0.8-0.9
							c-0.2-0.2-0.2-0.3-0.4-0.4C163.6,40.2,162,39.2,162,39.2z"/>
						
							<linearGradient id="SVGID_00000180364407478859774010000016911169756718266033_" gradientUnits="userSpaceOnUse" x1="159.978" y1="40.0399" x2="160.7458" y2="40.0399">
							<stop  offset="0" style="stop-color:#F6BF64"/>
							<stop  offset="0.9944" style="stop-color:#F68B55"/>
						</linearGradient>
						<path style="fill:url(#SVGID_00000180364407478859774010000016911169756718266033_);" d="M160.3,39c0,0,0.3,0.2,0.3,0.7
							c0,0.5,0.1,1.3,0.1,1.3c-0.1,0-0.7-1.1-0.7-1.1S160,39.1,160.3,39z"/>
						
							<linearGradient id="SVGID_00000023256728708149187350000009186894530705954708_" gradientUnits="userSpaceOnUse" x1="161.2534" y1="40.9682" x2="162.7414" y2="40.9682">
							<stop  offset="0" style="stop-color:#F6BF64"/>
							<stop  offset="0.9944" style="stop-color:#F68B55"/>
						</linearGradient>
						<path style="fill:url(#SVGID_00000023256728708149187350000009186894530705954708_);" d="M161.3,39.1l0.5,0.8l-0.2,0.3
							l1.2,2.6l-0.9-3.7C161.9,39.2,161.4,39,161.3,39.1z"/>
						
							<linearGradient id="SVGID_00000003064986484126690430000008914549582569879208_" gradientUnits="userSpaceOnUse" x1="162.8122" y1="41.5944" x2="164.3002" y2="41.5944">
							<stop  offset="0" style="stop-color:#F6BF64"/>
							<stop  offset="0.9944" style="stop-color:#F68B55"/>
						</linearGradient>
						<path style="fill:url(#SVGID_00000003064986484126690430000008914549582569879208_);" d="M163.7,40.3c0,0,0.4,0.3,0.6,0.6
							l-0.5,0.3l0.1,0.5l-1.2,1.3L163.7,40.3z"/>
						<polygon class="st32" points="161.9,39.2 162.7,42.9 162.8,42.9 163.7,40.3 162.8,39.9 						"/>
						<polygon class="st21" points="162,38.9 162.8,39.9 162.3,40.1 162,39.5 161.9,39.2 						"/>
						<polygon class="st21" points="163.6,39.9 163.7,40.3 163.3,40.7 162.8,39.9 						"/>
						<polygon class="st33" points="162.5,40 162.6,40.5 162.4,41.4 162.7,42.9 162.8,42.9 163.2,41.9 163,40.6 163.1,40.4 
							162.8,39.9 						"/>
						
							<linearGradient id="SVGID_00000000904891363718433370000007349045131746876038_" gradientUnits="userSpaceOnUse" x1="164.8632" y1="42.5873" x2="165.6122" y2="42.5873">
							<stop  offset="0" style="stop-color:#F6BF64"/>
							<stop  offset="0.9944" style="stop-color:#F68B55"/>
						</linearGradient>
						<path style="fill:url(#SVGID_00000000904891363718433370000007349045131746876038_);" d="M165.1,41.7c0,0-0.2,0.2-0.2,0.7
							c0,0.4,0,1,0,1s0.7-0.2,0.7-0.3C165.6,43.1,165.4,42.1,165.1,41.7z"/>
						<polygon class="st35" points="162.1,38.2 162,38.9 162.8,39.9 163.6,39.9 163.5,39 						"/>
						<path class="st35" d="M162,35.1c0,0-0.3,0.7-0.3,0.9c0,0.2,0,0.3,0,0.3s-0.2-0.3-0.2-0.1c0,0.2,0,0.6,0.1,0.7
							c0,0.1,0.1,0.3,0.1,0.3s0,0,0.1,0c0,0,0,0.2,0.1,0.5c0.1,0.2,0.1,0.5,0.2,0.7c0.1,0.2,0.4,0.6,0.8,0.8c0.3,0.1,0.7,0.1,0.8,0
							c0.1-0.2,0.2-0.7,0.2-0.7s0.1,0,0.1,0.1c0,0,0.2-0.1,0.2-0.2c0-0.1,0-0.6,0-0.7s-0.1-0.1-0.1,0c0,0.1-0.1,0.1-0.1,0.1
							s0.2-0.3,0.1-0.6c-0.1-0.3-0.2-0.6-0.2-0.7c-0.1-0.1-0.2-0.3-0.5-0.6C162.8,35.6,162,35.1,162,35.1z"/>
						<path class="st36" d="M161.7,36c0,0-0.2-0.5-0.2-0.7c0-0.2-0.1-0.2-0.1,0.3c0,0.3,0.1,0.6,0.1,0.6c0,0,0,0,0.1,0
							c0.1,0.1,0.1,0.1,0.1,0.1v-0.2V36z"/>
						<path class="st37" d="M163.6,35.8c0,0,0-0.4-0.7-0.9c-0.8-0.4-1.2-0.4-1.3-0.1c-0.1,0.3-0.2,0.2-0.1,0.5
							c0.1,0.3,0,0.5,0.2,0.7c0.2,0.2,0.4-0.4,0.5-0.3c0.1,0,0.1,0,0.5,0.2c0.4,0.2,0.5,0.3,0.7,0.3
							C163.6,36.1,163.6,35.8,163.6,35.8z"/>
						<path class="st36" d="M163.5,36.1c0.3,0.4,0.3,1.6,0.3,1.6c0,0,0.1-0.1,0.1-0.1l0.1,0c0.1,0,0.1,0,0.1,0v0.3
							c0.3,0,0.1-0.4,0.1-0.7c0-0.2-0.1-0.9-0.2-1.1c-0.1-0.3-0.3-0.3-0.3-0.3S163.4,36.1,163.5,36.1z"/>
					</g>
					<path class="st27" d="M158.3,41.3l0,0.1c0,0.1,0.1,0.1,0.1,0.1l0.1,0.1c0.1,0.1,0.2,0.3,0.1,0.3l-0.1,0c0,0,0,0.1,0,0.1l0,0.1
						c0,0.1-0.1,0.2-0.2,0l-0.1-0.1c0,0-0.1-0.1-0.1-0.1l-0.1,0c-0.1,0-0.2-0.2-0.2-0.3l0-0.1c0,0,0-0.1,0-0.2l-0.1-0.1
						c-0.1-0.1,0-0.3,0.1-0.2l0.1,0c0,0,0.1,0,0.1,0l0-0.1C158.1,41.1,158.3,41.2,158.3,41.3z"/>
					<path class="st27" d="M159.9,42.2l0,0.1c0,0.1,0.1,0.1,0.1,0.1l0.1,0.1c0.1,0.1,0.2,0.3,0.1,0.3l-0.1,0c0,0,0,0.1,0,0.1l0,0.1
						c0,0.1-0.1,0.2-0.2,0l-0.1-0.1c0,0-0.1-0.1-0.1-0.1l-0.1,0c-0.1,0-0.2-0.2-0.2-0.3l0-0.1c0,0,0-0.1,0-0.2l-0.1-0.1
						c-0.1-0.1,0-0.3,0.1-0.2l0.1,0c0,0,0.1,0,0.1,0l0-0.1C159.7,42,159.8,42.1,159.9,42.2z"/>
					<path class="st27" d="M161.3,43.1l0,0.1c0,0.1,0.1,0.1,0.1,0.1l0.1,0.1c0.1,0.1,0.2,0.3,0.1,0.3l-0.1,0c0,0,0,0.1,0,0.1l0,0.1
						c0,0.1-0.1,0.2-0.2,0l-0.1-0.1c0,0-0.1-0.1-0.1-0.1l-0.1,0c-0.1,0-0.2-0.2-0.2-0.3l0-0.1c0,0,0-0.1,0-0.2l-0.1-0.1
						c-0.1-0.1,0-0.3,0.1-0.2l0.1,0c0,0,0.1,0,0.1,0l0-0.1C161.2,42.8,161.3,42.9,161.3,43.1z"/>
					<path class="st27" d="M162.9,44l0,0.1c0,0.1,0.1,0.1,0.1,0.1l0.1,0.1c0.1,0.1,0.2,0.3,0.1,0.3l-0.1,0c0,0,0,0.1,0,0.1l0,0.1
						c0,0.1-0.1,0.2-0.2,0l-0.1-0.1c0,0-0.1-0.1-0.1-0.1l-0.1,0c-0.1,0-0.2-0.2-0.2-0.3l0-0.1c0,0,0-0.1,0-0.2l-0.1-0.1
						c-0.1-0.1,0-0.3,0.1-0.2l0.1,0c0,0,0.1,0,0.1,0l0-0.1C162.7,43.7,162.8,43.8,162.9,44z"/>
					<path class="st27" d="M164.5,44.8l0,0.1c0,0.1,0.1,0.1,0.1,0.1l0.1,0.1c0.1,0.1,0.2,0.3,0.1,0.3l-0.1,0c0,0,0,0.1,0,0.1l0,0.1
						c0,0.1-0.1,0.2-0.2,0l-0.1-0.1c0,0-0.1-0.1-0.1-0.1l-0.1,0c-0.1,0-0.2-0.2-0.2-0.3l0-0.1c0,0,0-0.1,0-0.2l-0.1-0.1
						c-0.1-0.1,0-0.3,0.1-0.2l0.1,0c0,0,0.1,0,0.1,0l0-0.1C164.3,44.6,164.5,44.7,164.5,44.8z"/>
					<path class="st27" d="M166.1,45.7l0,0.1c0,0.1,0.1,0.1,0.1,0.1l0.1,0.1c0.1,0.1,0.2,0.3,0.1,0.3l-0.1,0c0,0,0,0.1,0,0.1l0,0.1
						c0,0.1-0.1,0.2-0.2,0l-0.1-0.1c0,0-0.1-0.1-0.1-0.1l-0.1,0c-0.1,0-0.2-0.2-0.2-0.3l0-0.1c0,0,0-0.1,0-0.2l-0.1-0.1
						c-0.1-0.1,0-0.3,0.1-0.2l0.1,0c0,0,0.1,0,0.1,0l0-0.1C165.9,45.5,166,45.6,166.1,45.7z"/>
					<path class="st27" d="M167.5,46.5l0,0.1c0,0.1,0.1,0.1,0.1,0.1l0.1,0.1c0.1,0.1,0.2,0.3,0.1,0.3l-0.1,0c0,0,0,0.1,0,0.1l0,0.1
						c0,0.1-0.1,0.2-0.2,0l-0.1-0.1c0,0-0.1-0.1-0.1-0.1l-0.1,0c-0.1,0-0.2-0.2-0.2-0.3l0-0.1c0,0,0-0.1,0-0.2l-0.1-0.1
						c-0.1-0.1,0-0.3,0.1-0.2l0.1,0c0,0,0.1,0,0.1,0l0-0.1C167.3,46.3,167.5,46.4,167.5,46.5z"/>
					<polygon class="st27" points="168.8,50.1 157,43.3 157,42.9 168.8,49.7 					"/>
					<polygon class="st27" points="168.8,51 157,44.2 157,43.8 168.8,50.6 					"/>
					<polygon class="st27" points="168.8,52 157,45.2 157,44.8 168.8,51.6 					"/>
					<polygon class="st27" points="168.8,52.9 157,46.1 157,45.7 168.8,52.5 					"/>
					<polygon class="st27" points="168.8,53.9 157,47.1 157,46.6 168.8,53.4 					"/>
					<polygon class="st27" points="168.8,54.8 157,48 157,47.6 168.8,54.4 					"/>
					<polygon class="st27" points="168.8,55.8 157,49 157,48.5 168.8,55.3 					"/>
					<polygon class="st27" points="168.8,56.7 157,49.9 157,49.5 168.8,56.3 					"/>
				</g>
				<g>
					<polygon class="st21" points="183.8,66.8 170.7,59.3 170.7,37.1 183.8,44.7 					"/>
					<path class="st27" d="M181.4,49.2c0,2.5-1.8,3.5-3.9,2.3c-2.2-1.3-3.9-4.3-3.9-6.8s1.8-3.5,3.9-2.3
						C179.6,43.6,181.4,46.7,181.4,49.2z"/>
					<path class="st27" d="M173,49.7l0,0.1c0,0.1,0.1,0.1,0.1,0.1l0.1,0.1c0.1,0.1,0.2,0.3,0.1,0.3l-0.1,0c0,0,0,0.1,0,0.1l0,0.1
						c0,0.1-0.1,0.2-0.2,0l-0.1-0.1c0,0-0.1-0.1-0.1-0.1l-0.1,0c-0.1,0-0.2-0.2-0.2-0.3l0-0.1c0,0,0-0.1,0-0.2l-0.1-0.1
						c-0.1-0.1,0-0.3,0.1-0.2l0.1,0c0,0,0.1,0,0.1,0l0-0.1C172.8,49.5,173,49.6,173,49.7z"/>
					<path class="st27" d="M174.6,50.6l0,0.1c0,0.1,0.1,0.1,0.1,0.1l0.1,0.1c0.1,0.1,0.2,0.3,0.1,0.3l-0.1,0c0,0,0,0.1,0,0.1l0,0.1
						c0,0.1-0.1,0.2-0.2,0l-0.1-0.1c0,0-0.1-0.1-0.1-0.1l-0.1,0c-0.1,0-0.2-0.2-0.2-0.3l0-0.1c0,0,0-0.1,0-0.2l-0.1-0.1
						c-0.1-0.1,0-0.3,0.1-0.2l0.1,0c0,0,0.1,0,0.1,0l0-0.1C174.4,50.4,174.5,50.5,174.6,50.6z"/>
					<path class="st27" d="M176,51.5l0,0.1c0,0.1,0.1,0.1,0.1,0.1l0.1,0.1c0.1,0.1,0.2,0.3,0.1,0.3l-0.1,0c0,0,0,0.1,0,0.1l0,0.1
						c0,0.1-0.1,0.2-0.2,0l-0.1-0.1c0,0-0.1-0.1-0.1-0.1l-0.1,0c-0.1,0-0.2-0.2-0.2-0.3l0-0.1c0,0,0-0.1,0-0.2l-0.1-0.1
						c-0.1-0.1,0-0.3,0.1-0.2l0.1,0c0,0,0.1,0,0.1,0l0-0.1C175.9,51.2,176,51.3,176,51.5z"/>
					<path class="st27" d="M177.6,52.4l0,0.1c0,0.1,0.1,0.1,0.1,0.1l0.1,0.1c0.1,0.1,0.2,0.3,0.1,0.3l-0.1,0c0,0,0,0.1,0,0.1l0,0.1
						c0,0.1-0.1,0.2-0.2,0l-0.1-0.1c0,0-0.1-0.1-0.1-0.1l-0.1,0c-0.1,0-0.2-0.2-0.2-0.3l0-0.1c0,0,0-0.1,0-0.2l-0.1-0.1
						c-0.1-0.1,0-0.3,0.1-0.2l0.1,0c0,0,0.1,0,0.1,0l0-0.1C177.4,52.1,177.6,52.2,177.6,52.4z"/>
					<path class="st27" d="M179.2,53.2l0,0.1c0,0.1,0.1,0.1,0.1,0.1l0.1,0.1c0.1,0.1,0.2,0.3,0.1,0.3l-0.1,0c0,0,0,0.1,0,0.1l0,0.1
						c0,0.1-0.1,0.2-0.2,0l-0.1-0.1c0,0-0.1-0.1-0.1-0.1l-0.1,0c-0.1,0-0.2-0.2-0.2-0.3l0-0.1c0,0,0-0.1,0-0.2l-0.1-0.1
						c-0.1-0.1,0-0.3,0.1-0.2l0.1,0c0,0,0.1,0,0.1,0l0-0.1C179,53,179.2,53.1,179.2,53.2z"/>
					<g>
						<g>
							<path class="st27" d="M180.9,55.2c-0.1,0-0.1,0-0.2-0.1l-0.1-0.1c0,0,0,0-0.1,0l-0.1,0c-0.1,0-0.1,0-0.2-0.1
								c-0.1-0.1-0.1-0.2-0.1-0.3l0-0.1c0,0,0-0.1,0-0.1l-0.1-0.1c-0.1-0.1-0.1-0.2,0-0.3c0-0.1,0.1-0.1,0.2,0l0.1,0l0-0.1
								c0-0.1,0.1-0.1,0.2-0.1c0.1,0,0.2,0.1,0.2,0.2l0,0.1c0,0,0,0.1,0.1,0.1l0.1,0.1c0.1,0.1,0.2,0.2,0.1,0.3c0,0.1,0,0.1-0.1,0.1
								l-0.1,0c0,0,0,0,0,0l0,0.1C181.1,55.1,181.1,55.1,180.9,55.2C181,55.2,180.9,55.2,180.9,55.2z M180.6,54.8L180.6,54.8
								c0.1,0,0.1,0,0.2,0.1l0.1,0.1c0,0,0,0,0,0c0,0,0,0,0,0l0-0.1c0-0.1,0-0.2,0.1-0.2l0.1,0c0,0,0-0.1-0.1-0.2l-0.1-0.1
								c-0.1,0-0.1-0.1-0.1-0.2l0-0.1c0-0.1-0.1-0.1-0.1-0.1l0,0.1c0,0.1-0.1,0.1-0.2,0.1l-0.1,0c0,0,0,0,0,0.1l0.1,0.1
								c0,0.1,0.1,0.2,0,0.2l0,0.1c0,0,0,0.1,0.1,0.1C180.5,54.8,180.5,54.8,180.6,54.8L180.6,54.8z"/>
						</g>
					</g>
					<g>
						<g>
							<path class="st27" d="M182.4,56c-0.1,0-0.1,0-0.2-0.1l-0.1-0.1c0,0,0,0-0.1,0l-0.1,0c-0.1,0-0.1,0-0.2-0.1
								c-0.1-0.1-0.1-0.2-0.1-0.3l0-0.1c0,0,0-0.1,0-0.1l-0.1-0.1c-0.1-0.1-0.1-0.2,0-0.3c0-0.1,0.1-0.1,0.2,0l0.1,0l0-0.1
								c0-0.1,0.1-0.1,0.2-0.1c0.1,0,0.2,0.1,0.2,0.2l0,0.1c0,0,0,0.1,0.1,0.1l0.1,0.1c0.1,0.1,0.2,0.2,0.1,0.3c0,0.1,0,0.1-0.1,0.1
								l-0.1,0c0,0,0,0,0,0l0,0.1C182.6,55.9,182.5,56,182.4,56C182.4,56,182.4,56,182.4,56z M182.1,55.6L182.1,55.6
								c0.1,0,0.1,0,0.2,0.1l0.1,0.1c0,0,0,0,0,0c0,0,0,0,0,0l0-0.1c0-0.1,0-0.2,0.1-0.2l0.1,0c0,0,0-0.1-0.1-0.2l-0.1-0.1
								c-0.1,0-0.1-0.1-0.1-0.2l0-0.1c0-0.1-0.1-0.1-0.1-0.1l0,0.1c0,0.1-0.1,0.1-0.2,0.1l-0.1,0c0,0,0,0,0,0.1l0.1,0.1
								c0,0.1,0.1,0.2,0,0.2l0,0.1c0,0,0,0.1,0.1,0.1C182,55.6,182,55.6,182.1,55.6L182.1,55.6z"/>
						</g>
					</g>
					<g>
						<path class="st38" d="M176.6,47.7c0,0-0.5-0.1-0.7-0.1c-0.1,0.1-1-0.1-1-0.1s-0.4,0.4-0.3,0.8s1.4,2.2,2.8,3s2.6,0.6,2.8,0.2
							c0-0.1-0.3-1.2-0.6-1.6c-0.3-0.3-0.6-0.7-0.8-0.9c-0.2-0.2-0.2-0.3-0.4-0.4C178.3,48.7,176.6,47.7,176.6,47.7z"/>
						<path class="st39" d="M175,47.6c0,0,0.3,0.2,0.3,0.7s0.1,1.3,0.1,1.3c-0.1,0-0.7-1.1-0.7-1.1S174.7,47.6,175,47.6z"/>
						<path class="st39" d="M175.9,47.6l0.5,0.8l-0.2,0.3l1.2,2.6l-0.9-3.7C176.6,47.7,176.1,47.5,175.9,47.6z"/>
						<path class="st39" d="M178.4,48.8c0,0,0.4,0.3,0.6,0.6l-0.5,0.3l0.1,0.5l-1.2,1.3L178.4,48.8z"/>
						<polygon class="st21" points="176.6,47.7 177.4,51.4 177.5,51.4 178.4,48.8 177.5,48.4 						"/>
						<path class="st36" d="M178.9,45.2c-0.3-1.2-1.3-1.8-1.5-1.9c0,0,0,0,0,0c-0.1-0.1-1.2-0.7-1.5,0.2c-0.3,1-0.2,1.7,0,2
							c0.2,0.3,0.3,2.2,0.3,2.2l1.2,0.8l1.2,0.7c0,0,0.1-1.7,0.3-1.8C179.1,47.1,179.2,46.5,178.9,45.2z"/>
						<polygon class="st40" points="176.7,47.5 177.5,48.4 176.9,48.6 176.6,48 176.6,47.7 						"/>
						<polygon class="st41" points="178.2,48.4 178.4,48.8 178,49.2 177.5,48.4 						"/>
						<polygon class="st42" points="177.1,48.5 177.3,49 177.1,50 177.4,51.4 177.5,51.4 177.8,50.4 177.6,49.1 177.8,48.9 
							177.5,48.4 						"/>
						<path class="st39" d="M179.7,50.2c0,0-0.2,0.2-0.2,0.7c0,0.4,0,1,0,1s0.7-0.2,0.7-0.3C180.2,51.6,180,50.6,179.7,50.2z"/>
						<polygon class="st35" points="176.7,46.7 176.7,47.5 177.5,48.4 178.2,48.4 178.1,47.5 						"/>
						<path class="st35" d="M176.8,43.8c0,0-0.4,0.5-0.5,0.7c0,0.2,0,0.3,0,0.3s-0.1-0.2-0.1,0c0,0.2,0,0.5,0.1,0.6
							c0,0.1,0.1,0.3,0.1,0.3c0,0,0,0,0.1,0c0,0,0,0.2,0.1,0.4c0.1,0.2,0.1,0.5,0.2,0.7c0.1,0.2,0.4,0.6,0.8,0.8
							c0.3,0.1,0.7,0.1,0.8,0c0.1-0.2,0.2-0.7,0.2-0.7s0,0.1,0.1,0.1c0,0,0.1-0.1,0.1-0.2c0-0.1,0-0.6,0-0.6c0,0-0.1-0.1-0.1,0
							c0,0.1-0.1,0.1-0.1,0.1s0-0.3,0-0.6c0-0.3-0.1-0.6-0.2-0.7c-0.1-0.1-0.2-0.3-0.5-0.6C177.5,44.1,176.8,43.8,176.8,43.8z"/>
					</g>
					<polygon class="st27" points="183.4,58.5 171.6,51.7 171.6,51.3 183.4,58.1 					"/>
					<polygon class="st27" points="183.4,59.4 171.6,52.6 171.6,52.2 183.4,59 					"/>
					<polygon class="st27" points="183.4,60.4 171.6,53.6 171.6,53.2 183.4,60 					"/>
					<polygon class="st27" points="183.4,61.3 171.6,54.5 171.6,54.1 183.4,60.9 					"/>
					<polygon class="st27" points="183.4,62.3 171.6,55.5 171.6,55 183.4,61.8 					"/>
					<polygon class="st27" points="183.4,63.2 171.6,56.4 171.6,56 183.4,62.8 					"/>
					<polygon class="st27" points="183.4,64.1 171.6,57.4 171.6,56.9 183.4,63.7 					"/>
					<polygon class="st27" points="183.4,65.1 171.6,58.3 171.6,57.9 183.4,64.7 					"/>
				</g>
				<g>
					<polygon class="st21" points="198.4,75.2 185.3,67.7 185.3,45.5 198.4,53.1 					"/>
					<path class="st27" d="M195.8,57.5c0,2.5-1.8,3.5-3.9,2.3c-2.2-1.3-3.9-4.3-3.9-6.8c0-2.5,1.8-3.5,3.9-2.3
						C194.1,51.9,195.8,55,195.8,57.5z"/>
					<g>
						<path class="st38" d="M191.1,56.1c0,0-0.5-0.1-0.7-0.1c-0.1,0.1-1-0.1-1-0.1s-0.4,0.4-0.3,0.8c0,0.4,1.4,2.2,2.8,3
							c1.3,0.8,2.6,0.6,2.8,0.2c0-0.1-0.3-1.2-0.6-1.6c-0.3-0.3-0.6-0.7-0.8-0.9c-0.2-0.2-0.2-0.3-0.4-0.4
							C192.7,57,191.1,56.1,191.1,56.1z"/>
						<path class="st39" d="M189.4,55.9c0,0,0.3,0.2,0.3,0.7c0,0.5,0.1,1.3,0.1,1.3c-0.1,0-0.7-1.1-0.7-1.1S189.1,55.9,189.4,55.9z"
							/>
						<path class="st39" d="M190.3,56l0.5,0.8l-0.2,0.3l1.2,2.6L191,56C191,56,190.5,55.9,190.3,56z"/>
						<path class="st39" d="M192.8,57.1c0,0,0.4,0.3,0.6,0.6l-0.5,0.3l0.1,0.5l-1.2,1.3L192.8,57.1z"/>
						<polygon class="st21" points="191,56 191.8,59.7 191.9,59.7 192.8,57.1 191.9,56.8 						"/>
						<polygon class="st43" points="190.9,56 192.9,57.2 193,56.2 193,55 190.8,53.8 						"/>
						<polygon class="st40" points="191.1,55.8 191.9,56.7 191.4,56.9 191.1,56.4 191,56 						"/>
						<polygon class="st41" points="192.7,56.7 192.8,57.1 192.4,57.6 191.9,56.7 						"/>
						<polygon class="st42" points="191.6,56.9 191.7,57.3 191.5,58.3 191.8,59.7 191.9,59.7 192.2,58.7 192,57.5 192.2,57.2 
							191.9,56.7 						"/>
						<path class="st39" d="M194.1,58.6c0,0-0.2,0.2-0.2,0.7c0,0.4,0,1,0,1s0.7-0.2,0.7-0.3C194.7,59.9,194.5,59,194.1,58.6z"/>
						<polygon class="st35" points="191.2,55.1 191.1,55.8 191.9,56.7 192.7,56.7 192.6,55.9 						"/>
						<path class="st35" d="M191.1,52c0,0-0.3,0.7-0.3,0.9c0,0.2,0,0.3,0,0.3s-0.2-0.3-0.2-0.1c0,0.2,0,0.6,0.1,0.7
							c0,0.1,0.1,0.3,0.1,0.3c0,0,0,0,0.1,0s0,0.2,0.1,0.4c0.1,0.2,0.1,0.5,0.2,0.7c0.1,0.2,0.4,0.6,0.8,0.8c0.3,0.1,0.7,0.1,0.8,0
							c0.1-0.2,0.2-0.6,0.2-0.6s0-0.1,0-0.1s0.2-0.1,0.2-0.2c0-0.1,0-0.6,0-0.7c0,0-0.1-0.1-0.1,0c0,0.1,0,0.1,0,0.1s0.2-0.3,0-0.6
							c-0.1-0.3-0.2-0.6-0.2-0.7c-0.1-0.1-0.2-0.3-0.5-0.6C191.9,52.4,191.1,52,191.1,52z"/>
						<path class="st44" d="M191.2,52.4c0,0-0.2,0.1-0.3,0.3c-0.1,0.2,0.1,0.5,0.1,0.6c0,0.2,0,0.6,0,0.7s-0.1,0.5-0.1,0.6
							c0,0.2,0,0.4,0,0.5c0,0.1,0,0.3,0.1,0.5c0.1,0.2,0.1,0.3,0.1,0.5c0,0.2,0,0.7,0,0.9c-0.1,0.1-0.1,0.2-0.1,0.3
							c0,0.1-0.1,0.2-0.1,0.4s-0.1-0.4-0.2-0.5c0-0.1-0.1-1.1-0.1-1.2c0-0.1,0.1-0.7,0.1-0.7c0,0-0.1-0.3-0.1-0.6
							c0-0.3-0.4-1.3-0.4-1.9c0-0.6,0.1-1.5,0.6-1.4C191.5,51.7,191.2,52.4,191.2,52.4z"/>
						<path class="st45" d="M191.4,51.3c0,0-0.4,0-0.4,0.3c0,0.2,0.1,0.8,0.2,1c0.1,0.2,0.6,0.9,0.9,1c0.2,0.1,0.7,0.4,0.9,0.8
							c0.1,0.3,0,1.5,0,1.6s0,0.5,0,0.6c-0.1,0.2-0.2,0.5-0.2,0.8c0,0.2,0.2,1.1,0.2,1.2c0,0.1,0.1,0.3,0.1,0.4c0,0.1,0.1-0.9,0-1.4
							c-0.1-0.5-0.1-0.6-0.1-0.8c0.1-0.2,0.1-0.2,0.2-0.4c0.1-0.2,0.4-0.6,0.4-1.5c0-0.9-0.2-2.3-1.1-2.9
							C191.7,51.4,191.8,51.5,191.4,51.3z"/>
						<path class="st46" d="M190.9,55.3c0,0.1-0.1,0.1-0.1,0.1c-0.1,0-0.1-0.1-0.1-0.2c0-0.1,0.1-0.1,0.1-0.1
							C190.9,55.2,190.9,55.3,190.9,55.3z"/>
						<path class="st46" d="M193,56.9c0,0.1-0.1,0.1-0.1,0.1c-0.1,0-0.1-0.1-0.1-0.2c0-0.1,0.1-0.1,0.1-0.1
							C193,56.7,193,56.8,193,56.9z"/>
					</g>
					<polygon class="st27" points="197.8,66.7 186,59.9 186,59.5 197.8,66.3 					"/>
					<polygon class="st27" points="197.8,67.7 186,60.9 186,60.4 197.8,67.2 					"/>
					<polygon class="st27" points="197.8,68.6 186,61.8 186,61.4 197.8,68.2 					"/>
					<polygon class="st27" points="197.8,69.6 186,62.8 186,62.3 197.8,69.1 					"/>
					<polygon class="st27" points="197.8,70.5 186,63.7 186,63.3 197.8,70.1 					"/>
					<polygon class="st27" points="197.8,71.4 186,64.6 186,64.2 197.8,71 					"/>
					<polygon class="st27" points="197.8,72.4 186,65.6 186,65.2 197.8,72 					"/>
					<polygon class="st27" points="197.8,73.3 186,66.5 186,66.1 197.8,72.9 					"/>
					<path class="st27" d="M187.8,58.2l0,0.1c0,0.1,0.1,0.1,0.1,0.1l0.1,0.1c0.1,0.1,0.2,0.3,0.1,0.3l-0.1,0c0,0,0,0.1,0,0.1l0,0.1
						c0,0.1-0.1,0.2-0.2,0l-0.1-0.1c0,0-0.1-0.1-0.1-0.1l-0.1,0c-0.1,0-0.2-0.2-0.2-0.3l0-0.1c0,0,0-0.1,0-0.2l-0.1-0.1
						c-0.1-0.1,0-0.3,0.1-0.2l0.1,0c0,0,0.1,0,0.1,0l0-0.1C187.6,58,187.7,58,187.8,58.2z"/>
					<path class="st27" d="M189.3,59.1l0,0.1c0,0.1,0.1,0.1,0.1,0.1l0.1,0.1c0.1,0.1,0.2,0.3,0.1,0.3l-0.1,0c0,0,0,0.1,0,0.1l0,0.1
						c0,0.1-0.1,0.2-0.2,0l-0.1-0.1c0,0-0.1-0.1-0.1-0.1l-0.1,0c-0.1,0-0.2-0.2-0.2-0.3l0-0.1c0,0,0-0.1,0-0.2l-0.1-0.1
						c-0.1-0.1,0-0.3,0.1-0.2l0.1,0c0,0,0.1,0,0.1,0l0-0.1C189.1,58.9,189.3,58.9,189.3,59.1z"/>
					<path class="st27" d="M190.8,59.9l0,0.1c0,0.1,0.1,0.1,0.1,0.1l0.1,0.1c0.1,0.1,0.2,0.3,0.1,0.3l-0.1,0c0,0,0,0.1,0,0.1l0,0.1
						c0,0.1-0.1,0.2-0.2,0l-0.1-0.1c0,0-0.1-0.1-0.1-0.1l-0.1,0c-0.1,0-0.2-0.2-0.2-0.3l0-0.1c0,0,0-0.1,0-0.2l-0.1-0.1
						c-0.1-0.1,0-0.3,0.1-0.2l0.1,0c0,0,0.1,0,0.1,0l0-0.1C190.6,59.7,190.7,59.8,190.8,59.9z"/>
					<g>
						<g>
							<path class="st27" d="M192.5,61.9c-0.1,0-0.1,0-0.2-0.1l-0.1-0.1c0,0,0,0,0,0l-0.1,0c-0.1,0-0.1,0-0.2-0.1
								c-0.1-0.1-0.1-0.2-0.1-0.3l0-0.1c0,0,0-0.1,0-0.1l-0.1-0.1c-0.1-0.1-0.1-0.2,0-0.3c0-0.1,0.1-0.1,0.2,0l0.1,0l0-0.1
								c0-0.1,0.1-0.1,0.2-0.1c0.1,0,0.2,0.1,0.2,0.2l0,0.1c0,0,0,0.1,0.1,0.1l0.1,0.1c0.1,0.1,0.2,0.2,0.1,0.3c0,0.1,0,0.1-0.1,0.1
								l-0.1,0c0,0,0,0,0,0l0,0.1C192.6,61.8,192.6,61.8,192.5,61.9C192.5,61.9,192.5,61.9,192.5,61.9z M192.1,61.5L192.1,61.5
								c0.1,0,0.1,0,0.2,0.1l0.1,0.1c0,0,0,0,0,0c0,0,0,0,0,0l0-0.1c0-0.1,0-0.2,0.1-0.2l0.1,0c0,0,0-0.1-0.1-0.2l-0.1-0.1
								c-0.1,0-0.1-0.1-0.1-0.2l0-0.1c0-0.1-0.1-0.1-0.1-0.1l0,0.1c0,0.1-0.1,0.1-0.2,0.1l-0.1,0c0,0,0,0,0,0.1l0.1,0.1
								c0,0.1,0.1,0.2,0,0.2l0,0.1c0,0,0,0.1,0.1,0.1C192,61.5,192.1,61.5,192.1,61.5L192.1,61.5z"/>
						</g>
					</g>
					<g>
						<g>
							<path class="st27" d="M194.1,62.7c-0.1,0-0.1,0-0.2-0.1l-0.1-0.1c0,0,0,0,0,0l-0.1,0c-0.1,0-0.1,0-0.2-0.1
								c-0.1-0.1-0.1-0.2-0.1-0.3l0-0.1c0,0,0-0.1,0-0.1l-0.1-0.1c-0.1-0.1-0.1-0.2,0-0.3c0-0.1,0.1-0.1,0.2,0l0.1,0l0-0.1
								c0-0.1,0.1-0.1,0.2-0.1c0.1,0,0.2,0.1,0.2,0.2l0,0.1c0,0,0,0.1,0.1,0.1l0.1,0.1c0.1,0.1,0.2,0.2,0.1,0.3c0,0.1,0,0.1-0.1,0.1
								l-0.1,0c0,0,0,0,0,0l0,0.1C194.3,62.6,194.2,62.7,194.1,62.7C194.1,62.7,194.1,62.7,194.1,62.7z M193.8,62.3
								c0.1,0,0.1,0,0.2,0.1l0.1,0.1c0,0,0,0,0,0c0,0,0,0,0,0l0-0.1c0-0.1,0-0.2,0.1-0.2l0.1,0c0,0,0-0.1-0.1-0.2L194,62
								c-0.1,0-0.1-0.1-0.1-0.2l0-0.1c0-0.1-0.1-0.1-0.1-0.1l0,0.1c0,0.1-0.1,0.1-0.2,0.1l-0.1,0c0,0,0,0,0,0.1l0.1,0.1
								c0,0.1,0.1,0.2,0,0.2l0,0.1c0,0,0,0.1,0.1,0.1C193.7,62.3,193.7,62.3,193.8,62.3L193.8,62.3z M194.2,62.4L194.2,62.4
								L194.2,62.4z"/>
						</g>
					</g>
					<g>
						<g>
							<path class="st27" d="M195.6,63.6c-0.1,0-0.1,0-0.2-0.1l-0.1-0.1c0,0,0,0,0,0l-0.1,0c-0.1,0-0.1,0-0.2-0.1
								c-0.1-0.1-0.1-0.2-0.1-0.3l0-0.1c0,0,0-0.1,0-0.1l-0.1-0.1c-0.1-0.1-0.1-0.2,0-0.3c0-0.1,0.1-0.1,0.2,0l0.1,0l0-0.1
								c0-0.1,0.1-0.1,0.2-0.1c0.1,0,0.2,0.1,0.2,0.2l0,0.1c0,0,0,0.1,0.1,0.1l0.1,0.1c0.1,0.1,0.2,0.2,0.1,0.3c0,0.1,0,0.1-0.1,0.1
								l-0.1,0c0,0,0,0,0,0l0,0.1C195.8,63.5,195.8,63.6,195.6,63.6C195.7,63.6,195.7,63.6,195.6,63.6L195.6,63.6L195.6,63.6z
								 M195.3,63.2c0.1,0,0.1,0,0.2,0.1l0.1,0.1c0,0,0,0,0,0c0,0,0,0,0,0l0-0.1c0-0.1,0-0.2,0.1-0.2l0.1,0c0,0,0-0.1-0.1-0.2
								l-0.1-0.1c-0.1,0-0.1-0.1-0.1-0.2l0-0.1c0-0.1-0.1-0.1-0.1-0.1l0,0.1c0,0.1-0.1,0.1-0.2,0.1l-0.1,0c0,0,0,0,0,0.1l0.1,0.1
								c0,0.1,0.1,0.2,0,0.2l0,0.1c0,0,0,0.1,0.1,0.1C195.2,63.2,195.2,63.2,195.3,63.2L195.3,63.2z M195.1,62.4L195.1,62.4
								L195.1,62.4z"/>
						</g>
					</g>
					<g>
						<g>
							<path class="st27" d="M197.1,64.5c-0.1,0-0.1,0-0.2-0.1l-0.1-0.1c0,0,0,0,0,0l-0.1,0c0,0,0,0,0,0c-0.1,0-0.1,0-0.2-0.1
								c-0.1-0.1-0.1-0.2-0.1-0.3l0-0.1c0,0,0-0.1,0-0.1l-0.1-0.1c-0.1-0.1-0.1-0.2,0-0.3c0-0.1,0.1-0.1,0.2,0l0.1,0l0-0.1
								c0-0.1,0.1-0.1,0.2-0.1c0.1,0,0.2,0.1,0.2,0.2l0,0.1c0,0,0,0.1,0.1,0.1l0.1,0.1c0.1,0.1,0.2,0.2,0.1,0.3c0,0.1,0,0.1-0.1,0.1
								l-0.1,0c0,0,0,0,0,0l0,0.1C197.3,64.4,197.2,64.4,197.1,64.5C197.2,64.5,197.1,64.5,197.1,64.5z M196.8,64.1
								c0.1,0,0.1,0,0.2,0.1l0.1,0.1c0,0,0,0,0,0c0,0,0,0,0,0l0-0.1c0-0.1,0-0.2,0.1-0.2l0.1,0c0,0,0-0.1-0.1-0.2l-0.1-0.1
								c-0.1,0-0.1-0.1-0.1-0.2l0-0.1c0-0.1-0.1-0.1-0.1-0.1l0,0.1c0,0.1-0.1,0.1-0.2,0.1l-0.1,0c0,0,0,0,0,0.1l0.1,0.1
								c0,0.1,0.1,0.2,0,0.2l0,0.1c0,0,0,0.1,0.1,0.1C196.7,64.1,196.7,64.1,196.8,64.1L196.8,64.1z M197.2,63.9L197.2,63.9
								L197.2,63.9z"/>
						</g>
					</g>
				</g>
			</g>
		</g>
		<g id="people_3_00000025429858061202975500000009152946516811267007_">
			<path class="st47" d="M143.1,134.8c0.7,0.1,1.5,0.1,2.3,0l0.4-0.7l2.5-0.7l0.4,0.9l-1.3,0.3l-0.9,0.4c-0.4,0.1-0.6,0.2-0.6,0.2
				c-3.7,0.5-4.2-1.1-4.2-1.1v-0.3C141.9,134.4,142.4,134.8,143.1,134.8z"/>
			<path class="st48" d="M141.4,132.3L141.4,132.3c0.3,0.3,0.7,0.3,1.2,0.4c0.2,0,0.4,0,0.6,0c0.1,0,0.2,0,0.2,0c0.1,0,0.2,0,0.3,0
				c0,0,0,0,0,0c0.6-0.1,1.1-0.3,1.7-0.5l0,0.1c0.6-0.6,1.6-1.5,2.2-1.9c0.9-0.5,2.3,0.1,2.5,0.4c0.2,0.4-0.8,2.3-0.9,2.7
				c-0.1,0.4-1.9,0.8-2,0.8c-0.1,0-1,0.4-1,0.4c-1.1,0.2-2.3,0.2-3.3,0.1c-0.6-0.1-1.1-0.5-1.4-1c-0.1-0.3-0.2-0.6-0.2-0.9
				C141.4,132.8,141.4,132.5,141.4,132.3z"/>
			<path class="st49" d="M141.4,132.3l-0.2-1.9c0,0,6.7-4.5,6.9-3c0.1,0.9,0.1,2.2,0.1,3.2c0,0.7-0.5,1.3-1.1,1.5
				C145.5,132.6,142.7,133.4,141.4,132.3z"/>
			<path class="st47" d="M152.4,144.2c1.3-0.1,2.7-0.5,3.4-1.5c0,0,4.3-1.9,5.7-4.5c0.5-1,0.3-2.2-0.5-2.8l0,0
				c1.6,0.4,0.8,3.1,0.8,3.1c-1.3,2.6-5.6,4.5-5.6,4.5c-1.1,1.2-3.3,1.7-3.3,1.7c-0.1,0-0.2,0-0.3,0c0,0-2.5,0.3-3.8-1v-0.8
				L152.4,144.2z"/>
			<path class="st48" d="M148.6,138.7c0.3-0.4,2.7,0.8,4.3,1.7c1.4-0.5,2.1-1.4,2.5-2c0.2-0.3,0.2-0.5,0.2-0.5s0-0.4,0-1.1
				c2.6-1.2,3.6-2.1,4.7-1.8c0.3,0.1,0.6,0.2,0.8,0.4c0.8,0.6,1.1,1.9,0.5,2.9c-1.4,2.6-5.8,4.5-5.8,4.5c-0.7,1-2.1,1.4-3.4,1.5
				l0-0.1c-0.2,0.1-1.9,0.4-3.8-1.3C148.6,142.9,148.1,139.3,148.6,138.7z"/>
			<g>
				<path class="st50" d="M141.2,150.3l2.1-1.2c0.2-0.2,0.6-0.2,1.1,0c0.7,0.4,1.4,1.5,1.4,2.3c0,0.5-0.2,0.8-0.4,0.9l-2.2,1.3
					L141.2,150.3z"/>
				<path class="st51" d="M140.8,151.1c0,0.9,0.6,1.9,1.4,2.3c0.7,0.4,1.4,0.1,1.4-0.8c0-0.9-0.6-1.9-1.4-2.3
					C141.4,149.9,140.8,150.3,140.8,151.1z"/>
				<path class="st52" d="M141.3,151.4c0,0.5,0.4,1.2,0.9,1.5c0.5,0.3,0.9,0.1,0.9-0.5c0-0.5-0.4-1.2-0.9-1.5
					C141.7,150.6,141.3,150.9,141.3,151.4z"/>
			</g>
			<g>
				<path class="st50" d="M119.6,137.8l2.1-1.2c0.2-0.2,0.6-0.2,1.1,0c0.7,0.4,1.4,1.5,1.4,2.3c0,0.5-0.2,0.8-0.4,0.9l-2.2,1.3
					L119.6,137.8z"/>
				<path class="st51" d="M119.3,138.6c0,0.9,0.6,1.9,1.4,2.3c0.7,0.4,1.4,0.1,1.4-0.8c0-0.9-0.6-1.9-1.4-2.3
					C119.9,137.4,119.3,137.8,119.3,138.6z"/>
				<path class="st52" d="M119.8,138.9c0,0.5,0.4,1.2,0.9,1.5c0.5,0.3,0.9,0.1,0.9-0.5c0-0.5-0.4-1.2-0.9-1.5
					C120.2,138.1,119.8,138.4,119.8,138.9z"/>
			</g>
			<g>
				<path class="st50" d="M125.1,154.9l2.1-1.2c0.2-0.2,0.6-0.2,1.1,0c0.7,0.4,1.4,1.5,1.4,2.3c0,0.5-0.2,0.8-0.4,0.9l-2.2,1.3
					L125.1,154.9z"/>
				<path class="st51" d="M124.7,155.8c0,0.9,0.6,1.9,1.4,2.3c0.7,0.4,1.4,0.1,1.4-0.8c0-0.9-0.6-1.9-1.4-2.3
					C125.3,154.6,124.7,154.9,124.7,155.8z"/>
				<path class="st52" d="M125.2,156.1c0,0.5,0.4,1.2,0.9,1.5c0.5,0.3,0.9,0.1,0.9-0.5c0-0.5-0.4-1.2-0.9-1.5
					C125.6,155.3,125.2,155.5,125.2,156.1z"/>
			</g>
			<g>
				<path class="st50" d="M116,147.5l-2.1-1.2c-0.2-0.2-0.6-0.2-1.1,0c-0.7,0.4-1.4,1.5-1.4,2.3c0,0.5,0.2,0.8,0.4,0.9l2.2,1.3
					L116,147.5z"/>
				<path class="st51" d="M116.4,148.3c0,0.9-0.6,1.9-1.4,2.3c-0.7,0.4-1.4,0.1-1.4-0.8c0-0.9,0.6-1.9,1.4-2.3
					C115.8,147.1,116.4,147.5,116.4,148.3z"/>
				<path class="st52" d="M115.9,148.6c0,0.5-0.4,1.2-0.9,1.5c-0.5,0.3-0.9,0.1-0.9-0.5c0-0.5,0.4-1.2,0.9-1.5
					C115.5,147.9,115.9,148.1,115.9,148.6z"/>
			</g>
			<g>
				<path class="st50" d="M138.3,139.5l2.1-1.2c0.2-0.2,0.6-0.2,1.1,0c0.7,0.4,1.4,1.5,1.4,2.3c0,0.5-0.2,0.8-0.4,0.9l-2.2,1.3
					L138.3,139.5z"/>
				<path class="st51" d="M137.9,140.4c0,0.9,0.6,1.9,1.4,2.3c0.7,0.4,1.4,0.1,1.4-0.8c0-0.9-0.6-1.9-1.4-2.3
					C138.5,139.2,137.9,139.5,137.9,140.4z"/>
				<path class="st52" d="M138.4,140.7c0,0.5,0.4,1.2,0.9,1.5c0.5,0.3,0.9,0.1,0.9-0.5s-0.4-1.2-0.9-1.5
					C138.8,139.9,138.4,140.1,138.4,140.7z"/>
			</g>
			
				<linearGradient id="SVGID_00000078012672889758073630000012492936359262826167_" gradientUnits="userSpaceOnUse" x1="-468.7505" y1="145.3582" x2="-437.0287" y2="145.3582" gradientTransform="matrix(1 0 0 1 581.3624 0)">
				<stop  offset="0" style="stop-color:#224F8B"/>
				<stop  offset="0.25" style="stop-color:#295594"/>
				<stop  offset="0.6643" style="stop-color:#3C64AE"/>
				<stop  offset="1" style="stop-color:#4F74C7"/>
			</linearGradient>
			<path style="fill:url(#SVGID_00000078012672889758073630000012492936359262826167_);" d="M112.6,146.2
				C112.6,146.2,112.6,146.2,112.6,146.2v-1.1l0.2,0.6c0.1-0.2,0.4-0.3,0.6-0.3l13.5-0.9l-5.5-6.1c-0.3-0.3-0.4-0.6-0.4-1l0,0v-1
				l0.1,0.6c0.1-0.2,0.3-0.5,0.6-0.6l0.2-0.1c0.5-0.2,1.1-0.2,1.5,0.2l6.8,6.7l9-5.4c0.3-0.2,0.7-0.2,1,0l0.4,0.2
				c0.1,0.1,0.2,0.1,0.2,0.2l0.3-0.4v1c0,0,0,0,0,0v0.1l0,0c0,0.3-0.2,0.6-0.5,0.8l-8.9,5.1l11.8,3.5c0.2,0.1,0.4,0.2,0.5,0.3
				l0.2-0.4l0,1.2c0,0.2-0.1,0.3-0.2,0.5l0,0c-0.2,0.3-0.7,0.5-1.1,0.4l-12.7-4.1l-1.6,7.2c-0.2,0.7-0.8,1.2-1.6,1.2l-0.3,0
				c-0.8-0.1-1.1-0.7-1.1-1.4v-0.8l0.1,0.3c0,0,0,0,0-0.1l1.9-6.7l-14.2,1.3c-0.4,0-0.8-0.2-0.9-0.6l-0.1-0.2
				C112.6,146.4,112.6,146.3,112.6,146.2L112.6,146.2L112.6,146.2z"/>
			<path class="st16" d="M140.7,136.9l-0.4-0.2c-0.3-0.2-0.7-0.2-1,0l-9,5.4l-6.8-6.7c-0.4-0.4-1-0.5-1.5-0.2l-0.2,0.1
				c-0.8,0.4-1,1.4-0.4,2l5.5,6.1l-13.5,0.9c-0.5,0-0.9,0.5-0.8,1l0.1,0.2c0.1,0.4,0.5,0.7,0.9,0.6l14.2-1.3l-1.9,6.7
				c-0.3,0.9,0,1.9,1,1.9l0.3,0c0.7,0.1,1.4-0.4,1.6-1.2l1.6-7.2l12.7,4.1c0.4,0.1,0.8,0,1.1-0.4l0,0c0.4-0.6,0.2-1.3-0.5-1.5
				l-11.8-3.5l8.9-5.1C141.4,138.2,141.3,137.3,140.7,136.9z"/>
			
				<linearGradient id="SVGID_00000081623143380052049560000006227968161435212205_" gradientUnits="userSpaceOnUse" x1="-130.0757" y1="339.2525" x2="-124.1355" y2="342.9268" gradientTransform="matrix(1 0 0 1 581.3624 0)">
				<stop  offset="0" style="stop-color:#224F8B"/>
				<stop  offset="0.25" style="stop-color:#295594"/>
				<stop  offset="0.6643" style="stop-color:#3C64AE"/>
				<stop  offset="1" style="stop-color:#4F74C7"/>
			</linearGradient>
			<path style="fill:url(#SVGID_00000081623143380052049560000006227968161435212205_);" d="M131.7,135.9v7.6c0,0.9-1.1,1.6-2.4,1.6
				c-1.3,0-2.4-0.7-2.4-1.6v-7.6H131.7z"/>
			<path class="st16" d="M126.8,135.9c0,0.9,1.1,1.6,2.4,1.6c1.3,0,2.4-0.7,2.4-1.6s-1.1-1.6-2.4-1.6
				C127.9,134.3,126.8,135,126.8,135.9z"/>
			
				<linearGradient id="SVGID_00000078764106532297576970000000510581498518711213_" gradientUnits="userSpaceOnUse" x1="-127.8034" y1="335.5848" x2="-121.8632" y2="339.2591" gradientTransform="matrix(1 0 0 1 581.3624 0)">
				<stop  offset="0" style="stop-color:#224F8B"/>
				<stop  offset="0.25" style="stop-color:#295594"/>
				<stop  offset="0.6643" style="stop-color:#3C64AE"/>
				<stop  offset="1" style="stop-color:#4F74C7"/>
			</linearGradient>
			<path style="fill:url(#SVGID_00000078764106532297576970000000510581498518711213_);" d="M130.8,133.7v2.2c0,0.5-0.7,1-1.5,1
				c-0.8,0-1.5-0.4-1.5-1v-2.2H130.8z"/>
			<path class="st16" d="M114.1,123l16.1-9.3c1-0.6,2.3-0.6,3.4,0l16.6,9.1l-18.8,14.4L114,126.1C112.8,125.4,112.9,123.7,114.1,123
				z"/>
			<path class="st16" d="M114,126.1l17.4,11.1l14.9-11.4c-0.2-0.4-0.3-0.7-0.5-1.1c-0.2-0.5-0.4-0.9-0.7-1.4c0,0-1.6-2.9-2.6-4.8
				l-2.1-1.1l-6.9-3.8c-1.1-0.6-2.3-0.6-3.4,0l-10.9,6.3l-5.2,3C112.9,123.7,112.8,125.4,114,126.1z"/>
			<path class="st56" d="M122.5,125.2l2,8.3l-4.3-2c-0.4-0.2-0.8-0.6-0.9-1.1l-1.7-8L122.5,125.2z"/>
			<path class="st57" d="M124.9,133.5l0.5-0.1l-1.4-7.4l-1.5-0.8l1.6,7.8C124.2,133.4,124.6,133.6,124.9,133.5z"/>
			<g>
				<path class="st58" d="M138.4,71.6c0,0-0.9,1.7-2.1,2.1c-1.2,0.3-3.4,7.8-3.4,7.8l-7.8,2.7l-0.6-0.3c0,0-0.5-0.4-0.8-2.1
					c-0.3-1.7-2.2-2.2-2-4.6c0.2-2.4-0.4-4.7,1.2-5c0,0-0.1-3,4.1-3.6c0.6-0.1,1.2-0.1,2-0.1c0.7,0,1.5,0.1,2.3,0.2c0,0,4,0.4,5,1.7
					C137.2,71.8,138.4,71.6,138.4,71.6z"/>
				<path class="st59" d="M124.2,84.7l0.3-1.5c0,0,4,0.9,4.7-2.5c0,0-0.7-2.9,1.3-2.7c2,0.2,1.5,1.9,1.5,1.9l1.1-0.7
					c0,0,0.2-5.9,0.8-6.2c0.6-0.3,1.1,0.3,2.2,0c0,0,2.6,11.2-1.9,11.3c0,0-1.7-0.2-2.4,1c-0.7,1.3-1,2-1,2S124.5,87.1,124.2,84.7z"
					/>
				<path class="st59" d="M148.4,94.3c0,0,2.5,0.9,3.6,0.5c0.5-0.1,1.5-0.6,1.9-0.8c0.6-0.3,0.5-0.6-0.1-0.9c-0.2-0.1-1.1-0.1-1.3,0
					c-0.5,0.3-1.4-0.2-1.4-0.2s1.7-1,3.5-0.8c1.8,0.2,1.8,0.6,2.4,0c0.6-0.6-1.6-2.7-3.2-2.8c-1.6-0.1-5.9,0-6.6,1.8
					C146.5,92.9,148.4,94.3,148.4,94.3z"/>
				<path class="st60" d="M145.8,89.9c0.7-0.2,1.5,0.1,1.9,0.7c1.1,1.6,2.6,4.6,0,5.7c-1.6,0.7-5.2,1-8.6-0.4
					c-4.2-1.7-8.2-5.2-8.2-5.2S141.4,91.1,145.8,89.9z"/>
				<path class="st59" d="M161.6,98.1c0,0,2-2.1,3.2-2.5c1.2-0.3,4-0.2,4.5,0.8c0.4,1-0.6,1.4-1.7,2.7c-1.1,1.3-3.8,3.4-5.6,2.3
					C160.1,100.4,161.6,98.1,161.6,98.1z"/>
				<path class="st49" d="M138.7,110.7c0,0,0-1.3-0.2-3.3c1.3-0.8,5.7-3.6,7.1-2.8c0.2,0.1,0.5,0.3,0.7,0.5c0.7,0.4,2,1.1,2.1,1.5
					c0.1,0.4,0.1,2.3,0,3.3c-2.3,0.4-7.5,3.8-9.5,4C137.1,112.9,138.7,110.7,138.7,110.7z"/>
				<polygon class="st61" points="136.1,91.4 136.1,91.4 136.1,91.4 				"/>
				<path class="st62" d="M136.1,91.4c0,0-0.4-0.6-1.1-1.5C135.4,90.1,135.7,90.7,136.1,91.4z"/>
				<path class="st63" d="M148.7,122.5c0,0,0,0.1,0.1,0.2l0,0C148.8,122.6,148.7,122.5,148.7,122.5z"/>
				
					<linearGradient id="SVGID_00000103254299790883100610000000905791911865942462_" gradientUnits="userSpaceOnUse" x1="117.1584" y1="104.187" x2="162.9169" y2="104.187">
					<stop  offset="0" style="stop-color:#266895"/>
					<stop  offset="0.5019" style="stop-color:#1F6EA4"/>
					<stop  offset="1" style="stop-color:#1775B8"/>
				</linearGradient>
				<path style="fill:url(#SVGID_00000103254299790883100610000000905791911865942462_);" d="M162.9,101.3c0-0.1,0-0.1,0-0.2
					c-0.1-1.1-0.4-2.5-1.3-3.1c-0.3-0.2-0.6-0.3-0.9-0.3c-0.4,0-3.5,0.7-6.5,1.4c-0.6,0.2-1.2,0.3-1.8,0.4c-2.1,0.5-3.7,0.9-3.7,0.9
					s-0.9-0.9-2.4-2.3c-3.3-3.1-7.5-7.2-7.5-7.2s-3-2.1-4.1-2.2c0,0-2.3-1.4-3.6-2c-0.2-0.1-0.5-0.2-0.7-0.3
					c-2.1-0.8-4.1-1.5-5.6-1.9c-1.4-0.4-2.5-0.6-3.1-0.6c-0.3,0-0.7,0.1-1.1,0.2c-1.4,0.4-3.3,1.5-3.3,3.8c0,1.6,0.6,11.2,1.2,19.3
					c0.2,0.1,0.4,0.2,0.6,0.3c3.3,2,6.8,4.2,8.6,5.9c0.7,0.6,1.1,1.1,1.3,1.6c0.1,0.2,0.2,0.5,0.3,0.8c0.5,1.7,1,5.3,1.4,8.3
					c2.5,0.4,5.6-0.1,8.2-0.9c0.5-0.2,0.9-0.3,1.2-0.5c0.4-0.1,0.9-0.3,1.3-0.8c0.6-0.5,1-1,1.2-1.5c0-0.1,0.1-0.2,0.1-0.4
					c0,0,0,0,0,0c1.3-3.5-3.3-6.6-3.3-6.6c-0.6-0.7-0.8-9.6-0.9-12.1c2.6,2.3,5.4,4.7,7.1,5.9c0.6,0.4,1,0.7,1.2,0.7
					c0.1,0,0.3,0,0.5,0c1.8-0.2,6.5-1.6,10.6-3.2c0.8-0.3,1.6-0.7,2.4-1c1-0.4,1.9-0.9,2.6-1.3c0,0,0-0.2,0-0.5
					C162.9,101.9,162.9,101.6,162.9,101.3z"/>
				<path class="st65" d="M137.7,123.5c-2.2,0.6-4.7,1-6.9,0.7c0-0.2,0-0.3-0.1-0.5C133,124.1,135.4,124.1,137.7,123.5z"/>
				<path class="st66" d="M143.2,132.3L143.2,132.3C143.2,132.3,143.2,132.3,143.2,132.3C143.2,132.3,143.2,132.3,143.2,132.3z"/>
				<polygon class="st66" points="143.4,132.7 143.4,132.6 143.4,132.7 				"/>
				<polygon class="st66" points="147.4,129.6 147.4,129.6 147.4,129.6 				"/>
				<polygon class="st67" points="106.5,106.4 106.5,106.3 106.5,106.4 				"/>
				<path class="st67" d="M118.4,107.3c0.2,0.1,0.4,0.2,0.6,0.3c-0.2-0.1-0.4-0.1-0.6-0.2C118.4,107.4,118.4,107.3,118.4,107.3z"/>
				<path class="st63" d="M126.4,117.5l-0.2-0.5C126.3,117.2,126.3,117.4,126.4,117.5z"/>
			</g>
			
				<linearGradient id="SVGID_00000101794080247126608110000017028941743434393758_" gradientUnits="userSpaceOnUse" x1="788.91" y1="129.9399" x2="807.9628" y2="129.9399" gradientTransform="matrix(-1 0 0 1 939.3537 0)">
				<stop  offset="0" style="stop-color:#224F8B"/>
				<stop  offset="0.25" style="stop-color:#295594"/>
				<stop  offset="0.6643" style="stop-color:#3C64AE"/>
				<stop  offset="1" style="stop-color:#4F74C7"/>
			</linearGradient>
			<path style="fill:url(#SVGID_00000101794080247126608110000017028941743434393758_);" d="M131.4,137.2l16.9-9.8l1.1-0.6
				c0.6-0.4,1-1,1-1.8v-1.7c0,0,0-0.1,0-0.1c0-0.2-0.1-0.3-0.3-0.4c0,0,0,0,0,0c-0.1,0-0.1-0.1-0.2-0.1c-0.1,0-0.2,0-0.3,0l-0.1,0
				l-2.9,1.1l-0.5,0.2c-1.3,0.5-2.5,1.1-3.7,1.9l-7.7,5.1C132.7,132.3,131.4,134.7,131.4,137.2z"/>
			<polygon class="st16" points="149.9,122.7 148.2,121.7 147.4,123.6 			"/>
			<path class="st69" d="M132.9,128.3c0,0-5.7-1.2-7.2-2.1c-1.5-0.8,2.3-2.9,5.1-2.5C133.6,124.2,132.9,128.3,132.9,128.3z"/>
			
				<linearGradient id="SVGID_00000029764331284506218690000004967629419583070084_" gradientUnits="userSpaceOnUse" x1="112.8665" y1="110.86" x2="130.9881" y2="110.86">
				<stop  offset="0" style="stop-color:#1A51A6"/>
				<stop  offset="0.6177" style="stop-color:#2145A9"/>
				<stop  offset="1" style="stop-color:#263BAB"/>
			</linearGradient>
			<path style="fill:url(#SVGID_00000029764331284506218690000004967629419583070084_);" d="M112.9,97.4c0.2-1.5,3.3-3.1,4.5-2.3
				l3.8,2.4l0.5,0.3l6.2,3.6c1,0.6,1.7,1.7,1.8,2.9l1.3,18.1c0.2,2.6-3.6,5.3-6.1,4.2l-3.2-3.7l-0.5-0.3l-4.3-2.6
				c-2.6-1.6-4.1-4.5-3.8-7.5L112.9,97.4z"/>
			
				<linearGradient id="SVGID_00000181797446558377455630000000159848612268853158_" gradientUnits="userSpaceOnUse" x1="-420.8552" y1="111.3141" x2="-402.921" y2="111.3141" gradientTransform="matrix(-1 0 0 1 -291.3742 0)">
				<stop  offset="0" style="stop-color:#224F8B"/>
				<stop  offset="0.25" style="stop-color:#295594"/>
				<stop  offset="0.6643" style="stop-color:#3C64AE"/>
				<stop  offset="1" style="stop-color:#4F74C7"/>
			</linearGradient>
			<path style="fill:url(#SVGID_00000181797446558377455630000000159848612268853158_);" d="M112.8,97.6c0.1-1.5,1.8-2.3,3-1.5
				l3.8,2.4l0.5,0.3l6.2,3.6c1,0.6,1.7,1.7,1.8,2.9l1.3,18.1c0.2,2.6-2.6,4.4-4.9,3.1l-4.4-2.6l-0.5-0.3l-4.3-2.6
				c-2.6-1.6-4.1-4.5-3.8-7.5L112.8,97.6z"/>
			<path class="st69" d="M155.5,136.8c0,0.7,0.1,1.2,0.1,1.2s-0.2,0.4-0.3,0.7c-0.3,0.6-1,1.4-2.5,1.9l0,0c-0.3,0.1-0.6,0.2-1,0.3
				c0,0,0,0,0,0c0,0-0.1,0-0.1,0c-2,0.1-3.6-1.7-3.6-1.7l0.5-9.2l0-1.1l0-1.5l0-0.4c0.1-0.2,0.3-0.3,0.4-0.5
				c0.9-1.2-0.3-3.7-0.5-4.3c0,0,0,0,0,0l-0.3-0.5c-1.1,1-3.7,3.1-6.8,4.7c-3.2,1.6-6.9,2.7-10.3,1.4c0-1.1,0-2.3-0.2-3.6
				c0-0.2,0-0.3-0.1-0.5c2.2,0.4,4.6,0.4,6.9-0.2c0,0,0,0,0,0c0.3-0.1,0.6-0.2,0.9-0.3c0.5-0.2,0.9-0.3,1.3-0.5
				c0.4-0.1,0.8-0.3,1.3-0.8c0.6-0.5,1-1,1.2-1.5c0.1-0.1,0.1-0.2,0.1-0.4c0,0,0,0,0,0c1.1-3-2.2-5.8-3.1-6.4l2.5-1.1
				c1.7-1,4.2-2.2,6.5-2.6c1.5-0.3,3-0.2,4.1,0.6c0,0,2.9,1.8,3.2,5c0.1,0.7,0.1,2.3,0.1,4.3c0,1.3,0,2.8,0,4.4
				C155.7,129.1,155.6,134.5,155.5,136.8z"/>
			<g>
				
					<linearGradient id="SVGID_00000084521001243191433310000009716876166002238110_" gradientUnits="userSpaceOnUse" x1="126.9764" y1="72.9939" x2="131.0605" y2="72.9939">
					<stop  offset="0" style="stop-color:#069CFF"/>
					<stop  offset="0.1333" style="stop-color:#29A9FF"/>
					<stop  offset="0.2759" style="stop-color:#47B5FF"/>
					<stop  offset="0.427" style="stop-color:#5FBEFF"/>
					<stop  offset="0.5881" style="stop-color:#6FC4FF"/>
					<stop  offset="0.7661" style="stop-color:#79C8FF"/>
					<stop  offset="0.9944" style="stop-color:#7CC9FF"/>
				</linearGradient>
				<path style="fill:url(#SVGID_00000084521001243191433310000009716876166002238110_);" d="M130.8,77.2l-1.3,0.3
					c0.3-6-2.2-8.5-2.5-8.9c0.6-0.1,1.2-0.1,2-0.1C132.1,70.2,130.8,77.2,130.8,77.2z"/>
				
					<linearGradient id="SVGID_00000134217736949382497490000010185029270829756829_" gradientUnits="userSpaceOnUse" x1="128.3361" y1="79.9555" x2="132.4868" y2="79.9555">
					<stop  offset="0" style="stop-color:#1A51A6"/>
					<stop  offset="0.6177" style="stop-color:#2145A9"/>
					<stop  offset="1" style="stop-color:#263BAB"/>
				</linearGradient>
				<path style="fill:url(#SVGID_00000134217736949382497490000010185029270829756829_);" d="M132.5,80c0,1.5-0.9,2.8-2.1,2.8
					c-1.1,0-2.1-1.2-2.1-2.8c0-1.5,0.9-2.8,2.1-2.8C131.6,77.2,132.5,78.4,132.5,80z"/>
				<path class="st21" d="M131.7,80.2c0,0.8-0.5,1.4-1.1,1.4c-0.6,0-1.1-0.6-1.1-1.4c0-0.8,0.5-1.4,1.1-1.4
					C131.2,78.8,131.7,79.5,131.7,80.2z"/>
				<g>
					<path class="st21" d="M133.7,84.5c-0.3,0-0.7-0.1-1-0.2c-2-0.7-2.4-3.4-2.4-3.5l0.5-0.1c0,0,0.4,2.5,2.1,3.1
						c1.3,0.5,3-0.2,5-2.1l0.4,0.4C136.5,83.7,135,84.5,133.7,84.5z"/>
				</g>
				
					<linearGradient id="SVGID_00000111161486573440517780000010168872352181374605_" gradientUnits="userSpaceOnUse" x1="137.4324" y1="81.6741" x2="139.3694" y2="81.6741">
					<stop  offset="0" style="stop-color:#1A51A6"/>
					<stop  offset="0.6177" style="stop-color:#2145A9"/>
					<stop  offset="1" style="stop-color:#263BAB"/>
				</linearGradient>
				<path style="fill:url(#SVGID_00000111161486573440517780000010168872352181374605_);" d="M139.4,81.7c0,0.6-0.4,1.1-1,1.1
					s-1-0.5-1-1.1c0-0.6,0.4-1.1,1-1.1S139.4,81.1,139.4,81.7z"/>
			</g>
		</g>
	</g>
	<g id="correspondence_00000041288774603473296010000012276294837853809586_">
		<path class="st75" d="M195.1,25.7l-22.7-13.1c-0.4-0.3-0.8,0-0.8,0.6v7.4V21v3.4c0,0.4,0.4,0.6,0.7,0.5l2.6-0.9l20.2,11.6
			c0.4,0.3,0.8,0,0.8-0.6v-7.9C195.9,26.6,195.5,25.9,195.1,25.7z"/>
		<path class="st75" d="M216.3,23L193.6,9.8c-0.4-0.3-0.8,0-0.8,0.6v7.9c0,0.6,0.4,1.3,0.8,1.5l19.6,11.3l3.3,4
			c0.2,0.3,0.6,0.1,0.6-0.2v-2.6v-0.8v-7.1C217.1,23.9,216.7,23.2,216.3,23z"/>
		<path class="st21" d="M177.9,20.8c0,1.5-1.1,2.2-2.4,1.4c-1.3-0.8-2.4-2.6-2.4-4.2c0-1.5,1.1-2.2,2.4-1.4
			C176.8,17.4,177.9,19.3,177.9,20.8z"/>
		<path class="st21" d="M199.7,17.7c0,1.5-1.1,2.2-2.4,1.4c-1.3-0.8-2.4-2.6-2.4-4.2c0-1.5,1.1-2.2,2.4-1.4
			C198.7,14.3,199.7,16.2,199.7,17.7z"/>
		<g>
			<g>
				<path class="st21" d="M181.2,19.2l0.1,0.2c0,0.1,0.1,0.1,0.1,0.2l0.1,0.1c0.1,0.1,0.2,0.3,0.1,0.4l-0.1,0c0,0-0.1,0.1-0.1,0.2
					l0,0.1c0,0.2-0.1,0.2-0.3,0.1l-0.1-0.1c-0.1-0.1-0.1-0.1-0.2-0.1l-0.1,0c-0.1,0-0.3-0.2-0.3-0.4l0-0.1c0-0.1,0-0.1-0.1-0.2
					l-0.1-0.1c-0.1-0.2,0-0.4,0.1-0.3l0.1,0c0.1,0,0.1,0,0.1,0l0.1-0.1C181,18.9,181.1,19,181.2,19.2z"/>
				<path class="st21" d="M183.3,20.4l0.1,0.2c0,0.1,0.1,0.1,0.1,0.2l0.1,0.1c0.1,0.1,0.2,0.3,0.1,0.4l-0.1,0c0,0-0.1,0.1-0.1,0.2
					l0,0.1c0,0.2-0.1,0.2-0.3,0.1l-0.1-0.1c-0.1-0.1-0.1-0.1-0.2-0.1l-0.1,0c-0.1,0-0.3-0.2-0.3-0.4l0-0.1c0-0.1,0-0.1-0.1-0.2
					l-0.1-0.1c-0.1-0.2,0-0.4,0.1-0.3l0.1,0c0.1,0,0.1,0,0.1,0l0.1-0.1C183.1,20.1,183.2,20.2,183.3,20.4z"/>
				<path class="st21" d="M185.3,21.5l0.1,0.2c0,0.1,0.1,0.1,0.1,0.2l0.1,0.1c0.1,0.1,0.2,0.3,0.1,0.4l-0.1,0c0,0-0.1,0.1-0.1,0.2
					l0,0.1c0,0.2-0.1,0.2-0.3,0.1l-0.1-0.1c-0.1-0.1-0.1-0.1-0.2-0.1l-0.1,0c-0.1,0-0.3-0.2-0.3-0.4l0-0.1c0-0.1,0-0.1-0.1-0.2
					l-0.1-0.1c-0.1-0.2,0-0.4,0.1-0.3l0.1,0c0.1,0,0.1,0,0.1,0l0.1-0.1C185,21.2,185.2,21.3,185.3,21.5z"/>
				<path class="st21" d="M187.4,22.7l0.1,0.2c0,0.1,0.1,0.1,0.1,0.2l0.1,0.1c0.1,0.1,0.2,0.3,0.1,0.4l-0.1,0c0,0-0.1,0.1-0.1,0.2
					l0,0.1c0,0.2-0.1,0.2-0.3,0.1l-0.1-0.1c-0.1-0.1-0.1-0.1-0.2-0.1l-0.1,0c-0.1,0-0.3-0.2-0.3-0.4l0-0.1c0-0.1,0-0.1-0.1-0.2
					l-0.1-0.1c-0.1-0.2,0-0.4,0.1-0.3l0.1,0c0.1,0,0.1,0,0.1,0l0.1-0.1C187.1,22.4,187.3,22.5,187.4,22.7z"/>
				<path class="st21" d="M189.6,23.8l0.1,0.2c0,0.1,0.1,0.1,0.1,0.2l0.1,0.1c0.1,0.1,0.2,0.3,0.1,0.4l-0.1,0c0,0-0.1,0.1-0.1,0.2
					l0,0.1c0,0.2-0.1,0.2-0.3,0.1l-0.1-0.1c-0.1-0.1-0.1-0.1-0.2-0.1l-0.1,0c-0.1,0-0.3-0.2-0.3-0.4l0-0.1c0-0.1,0-0.1-0.1-0.2
					l-0.1-0.1c-0.1-0.2,0-0.4,0.1-0.3l0.1,0c0.1,0,0.1,0,0.1,0l0.1-0.1C189.3,23.6,189.5,23.7,189.6,23.8z"/>
			</g>
		</g>
		<g>
			<g>
				<path class="st21" d="M203.3,17l0.1,0.2c0,0.1,0.1,0.1,0.1,0.2l0.1,0.1c0.1,0.1,0.2,0.3,0.1,0.4l-0.1,0c0,0-0.1,0.1-0.1,0.2
					l0,0.1c0,0.2-0.1,0.2-0.3,0.1l-0.1-0.1c-0.1-0.1-0.1-0.1-0.2-0.1l-0.1,0c-0.1,0-0.3-0.2-0.3-0.4l0-0.1c0-0.1,0-0.1-0.1-0.2
					l-0.1-0.1c-0.1-0.2,0-0.4,0.1-0.3l0.1,0c0.1,0,0.1,0,0.1,0l0.1-0.1C203.1,16.7,203.3,16.8,203.3,17z"/>
				<path class="st21" d="M205.4,18.2l0.1,0.2c0,0.1,0.1,0.1,0.1,0.2l0.1,0.1c0.1,0.1,0.2,0.3,0.1,0.4l-0.1,0c0,0-0.1,0.1-0.1,0.2
					l0,0.1c0,0.2-0.1,0.2-0.3,0.1l-0.1-0.1c-0.1-0.1-0.1-0.1-0.2-0.1l-0.1,0c-0.1,0-0.3-0.2-0.3-0.4l0-0.1c0-0.1,0-0.1-0.1-0.2
					l-0.1-0.1c-0.1-0.2,0-0.4,0.1-0.3l0.1,0c0.1,0,0.1,0,0.1,0l0.1-0.1C205.2,17.9,205.3,18,205.4,18.2z"/>
				<path class="st21" d="M207.4,19.4l0.1,0.2c0,0.1,0.1,0.1,0.1,0.2l0.1,0.1c0.1,0.1,0.2,0.3,0.1,0.4l-0.1,0c0,0-0.1,0.1-0.1,0.2
					l0,0.1c0,0.2-0.1,0.2-0.3,0.1l-0.1-0.1c-0.1-0.1-0.1-0.1-0.2-0.1l-0.1,0c-0.1,0-0.3-0.2-0.3-0.4l0-0.1c0-0.1,0-0.1-0.1-0.2
					l-0.1-0.1c-0.1-0.2,0-0.4,0.1-0.3l0.1,0c0.1,0,0.1,0,0.1,0l0.1-0.1C207.1,19.1,207.3,19.2,207.4,19.4z"/>
				<path class="st21" d="M209.5,20.6l0.1,0.2c0,0.1,0.1,0.1,0.1,0.2l0.1,0.1c0.1,0.1,0.2,0.3,0.1,0.4l-0.1,0c0,0-0.1,0.1-0.1,0.2
					l0,0.1c0,0.2-0.1,0.2-0.3,0.1l-0.1-0.1c-0.1-0.1-0.1-0.1-0.2-0.1l-0.1,0c-0.1,0-0.3-0.2-0.3-0.4l0-0.1c0-0.1,0-0.1-0.1-0.2
					l-0.1-0.1c-0.1-0.2,0-0.4,0.1-0.3l0.1,0c0.1,0,0.1,0,0.1,0l0.1-0.1C209.2,20.3,209.4,20.4,209.5,20.6z"/>
				<path class="st21" d="M211.7,21.7l0.1,0.2c0,0.1,0.1,0.1,0.1,0.2l0.1,0.1c0.1,0.1,0.2,0.3,0.1,0.4l-0.1,0c0,0-0.1,0.1-0.1,0.2
					l0,0.1c0,0.2-0.1,0.2-0.3,0.1l-0.1-0.1c-0.1-0.1-0.1-0.1-0.2-0.1l-0.1,0c-0.1,0-0.3-0.2-0.3-0.4l0-0.1c0-0.1,0-0.1-0.1-0.2
					l-0.1-0.1c-0.1-0.2,0-0.4,0.1-0.3l0.1,0c0.1,0,0.1,0,0.1,0l0.1-0.1C211.4,21.4,211.6,21.5,211.7,21.7z"/>
			</g>
		</g>
		<path class="st21" d="M193.1,29.7l-13.5-7.8c-0.2-0.1-0.4-0.5-0.4-0.8l0,0c0-0.3,0.2-0.5,0.4-0.3l13.5,7.8
			c0.2,0.1,0.4,0.5,0.4,0.8l0,0C193.5,29.7,193.3,29.9,193.1,29.7z"/>
		<path class="st21" d="M193.1,31.2l-13.5-7.8c-0.2-0.1-0.4-0.5-0.4-0.8l0,0c0-0.3,0.2-0.5,0.4-0.3l13.5,7.8
			c0.2,0.1,0.4,0.5,0.4,0.8l0,0C193.5,31.2,193.3,31.3,193.1,31.2z"/>
		<path class="st21" d="M186.9,29.1l-7.3-4.3c-0.2-0.1-0.4-0.5-0.4-0.8l0,0c0-0.3,0.2-0.5,0.4-0.3l7.3,4.3c0.2,0.1,0.4,0.5,0.4,0.8
			l0,0C187.3,29.1,187.1,29.2,186.9,29.1z"/>
		<path class="st21" d="M214.9,27.8L201.3,20c-0.2-0.1-0.4-0.5-0.4-0.8l0,0c0-0.3,0.2-0.5,0.4-0.3l13.5,7.8c0.2,0.1,0.4,0.5,0.4,0.8
			l0,0C215.3,27.8,215.1,27.9,214.9,27.8z"/>
		<path class="st21" d="M214.9,29.2l-13.5-7.8c-0.2-0.1-0.4-0.5-0.4-0.8l0,0c0-0.3,0.2-0.5,0.4-0.3l13.5,7.8
			c0.2,0.1,0.4,0.5,0.4,0.8l0,0C215.3,29.2,215.1,29.4,214.9,29.2z"/>
		<path class="st21" d="M205.5,25.3l-4.2-2.4c-0.2-0.1-0.4-0.5-0.4-0.8l0,0c0-0.3,0.2-0.5,0.4-0.3l4.2,2.4c0.2,0.1,0.4,0.5,0.4,0.8
			l0,0C205.9,25.3,205.7,25.4,205.5,25.3z"/>
	</g>
	<g id="task_00000057837370359707134990000015377879509061014406_">
		<g>
			<g>
				<path class="st76" d="M125.6,40.8c-0.1,1.9-1.7,4.3-3.6,5.4c-1.9,1.1-3.4,0.5-3.3-1.4c0.1-1.9,1.7-4.4,3.6-5.5
					C124.3,38.1,125.7,38.8,125.6,40.8z"/>
				<path class="st77" d="M119.9,44l2.1,0.8l-0.4,0.2l3.4-7.5c0.1-0.3,0.5-0.5,0.8-0.4c0.3,0.1,0.5,0.4,0.3,0.7c0,0,0,0,0,0l-4,7.2
					c-0.1,0.1-0.3,0.2-0.4,0.2l0,0l-2.2-0.5c-0.2-0.1-0.4-0.3-0.3-0.5C119.3,44.1,119.6,43.9,119.9,44C119.8,44,119.9,44,119.9,44z"
					/>
			</g>
			<polygon class="st8" points="146.4,27.9 126.8,39.1 126.8,38.2 146.5,27 			"/>
			<polygon class="st8" points="138.7,33.8 126.7,40.8 126.7,39.9 138.8,33 			"/>
		</g>
		<g>
			<g>
				<path class="st76" d="M125.2,49c-0.1,1.8-1.7,4.1-3.5,5.2c-1.8,1.1-3.3,0.5-3.2-1.3c0.1-1.8,1.6-4.2,3.5-5.3
					C123.9,46.5,125.3,47.1,125.2,49z"/>
				<path class="st77" d="M119.6,52.2l2,0.7l-0.4,0.2l3.3-7.1c0.1-0.3,0.5-0.5,0.8-0.4c0.3,0.1,0.5,0.4,0.3,0.7c0,0,0,0,0,0
					l-3.8,6.9c-0.1,0.1-0.2,0.2-0.4,0.2l0,0l-2.1-0.4c-0.2,0-0.3-0.3-0.3-0.5C119,52.2,119.3,52.1,119.6,52.2
					C119.6,52.2,119.6,52.2,119.6,52.2z"/>
			</g>
			<polygon class="st8" points="145.4,36.2 126.3,47.3 126.3,46.5 145.5,35.4 			"/>
			<polygon class="st8" points="137.9,42 126.2,48.9 126.2,48.1 138,41.2 			"/>
		</g>
		<g>
			<g>
				<path class="st76" d="M124.7,57.2c-0.1,1.7-1.6,3.9-3.4,5c-1.8,1.1-3.2,0.6-3.2-1.1c0.1-1.7,1.6-4,3.4-5.1
					C123.4,55,124.8,55.5,124.7,57.2z"/>
				<path class="st77" d="M119.3,60.4l1.9,0.6l-0.4,0.2l3.2-6.8c0.1-0.3,0.5-0.5,0.8-0.4c0.3,0.1,0.4,0.3,0.3,0.6c0,0,0,0,0,0
					l-3.7,6.7c-0.1,0.1-0.2,0.2-0.4,0.2l0,0l-2.1-0.3c-0.2,0-0.3-0.2-0.2-0.4C118.8,60.5,119,60.4,119.3,60.4
					C119.3,60.4,119.3,60.4,119.3,60.4z"/>
			</g>
			<polygon class="st8" points="144.4,44.6 125.8,55.6 125.9,54.9 144.5,43.8 			"/>
			<polygon class="st8" points="137.1,50.3 125.7,57.2 125.8,56.4 137.2,49.5 			"/>
		</g>
	</g>
	<g id="Documents_00000176742170210409555700000008121266399903035534_">
		<g>
			<g>
				<polygon class="st21" points="181.9,103.3 190.5,108.2 201.6,101.8 193.1,96.9 				"/>
				<polygon class="st13" points="188.2,100.2 195.9,104.6 196.5,104.2 188.9,99.8 				"/>
				<polygon class="st13" points="187.3,100.7 194.9,105.1 195.6,104.8 187.9,100.3 				"/>
				<polygon class="st13" points="186.3,101.3 194,105.7 194.7,105.3 187,100.9 				"/>
				<polygon class="st13" points="185.4,101.8 193.1,106.2 193.7,105.8 186.1,101.4 				"/>
				<polygon class="st13" points="184.5,102.3 192.1,106.8 192.8,106.4 185.1,101.9 				"/>
				<polygon class="st13" points="183.5,102.9 191.2,107.3 191.9,106.9 184.2,102.5 				"/>
			</g>
			<polygon class="st78" points="201.6,101.8 201.6,105.8 190.5,112.3 190.5,108.2 			"/>
			<polygon class="st79" points="181.9,103.3 181.9,107.3 190.5,112.3 190.5,108.2 			"/>
		</g>
		<path class="st21" d="M201.6,102.3c0,0,0.3,0.1,0.4,0.1c0.1,0,0.3,0.3,0.3,0.3l-9.7,5.3L201.6,102.3z"/>
		<path class="st21" d="M201.6,103.7c0,0,0.2,0,0.2,0.1c0,0,0.1,0.2,0.1,0.2l-9.4,5.4L201.6,103.7z"/>
		<polygon class="st21" points="201.6,104.8 201.8,104.9 190.5,111.6 190.5,111.5 		"/>
		<polygon class="st21" points="181.9,106.5 181.8,106.6 190.5,111.6 190.5,111.5 		"/>
		<path class="st21" d="M181.9,103.8c0,0-0.3,0.1-0.4,0.2l7.2,4L181.9,103.8z"/>
		<g>
			<g>
				<path class="st13" d="M194.7,102.1c-0.1,0-0.1,0-0.1-0.1c0-0.1,0-0.1,0.1-0.1c2-0.3,2.2-1.4,2.2-1.4c0-0.1,0.1-0.1,0.1-0.1
					c0.1,0,0.1,0.1,0.1,0.1C197.1,100.5,196.9,101.7,194.7,102.1C194.7,102.1,194.7,102.1,194.7,102.1z"/>
			</g>
			<g>
				<path class="st13" d="M194.6,101.6c-0.1,0-0.1,0-0.1-0.1c0-0.1,0-0.1,0.1-0.1c1.3-0.2,1.4-0.9,1.5-0.9c0-0.1,0.1-0.1,0.1-0.1
					c0.1,0,0.1,0.1,0.1,0.1C196.3,100.6,196.1,101.3,194.6,101.6C194.6,101.6,194.6,101.6,194.6,101.6z"/>
			</g>
			<g>
				<path class="st13" d="M194.5,101.1c0,0-0.1,0-0.1-0.1c0-0.1,0-0.1,0.1-0.1c0.8-0.2,0.8-0.5,0.8-0.5c0-0.1,0.1-0.1,0.1-0.1
					c0.1,0,0.1,0.1,0.1,0.1C195.5,100.5,195.5,101,194.5,101.1C194.6,101.1,194.5,101.1,194.5,101.1z"/>
			</g>
			<path class="st13" d="M196.3,99.7c0,0,0,0.2-0.3,0.2c-0.3,0.1-0.7,0.1-0.7,0.1s-0.2,0-0.4-0.1c-0.2-0.1-0.2-0.1-0.4-0.1
				c-0.1,0-0.9,0.4-1.1,0.6c0,0-0.1,0.1,0,0.1c0.1,0.1,0.3,0.2,0.3,0.3c0,0.1-0.2,0.5-0.2,0.5c0,0-0.2,0.1-0.4,0.1
				c-0.3,0-0.7-0.2-0.7-0.5c0-0.3,0.4-1,1.9-1.6C195.8,98.8,196.4,99.5,196.3,99.7z"/>
		</g>
	</g>
	<g>
		<g>
			<path class="st80" d="M244.2,70.1c0,0.9-0.6,1.2-1.4,0.8c-0.8-0.4-1.4-1.5-1.4-2.4c0-0.9,0.6-1.2,1.4-0.8
				C243.6,68.2,244.2,69.2,244.2,70.1z"/>
			<path class="st80" d="M245.5,76.8l-4.2-2.4c0-0.4-0.2-1.6-0.6-2.8c0.4-0.6,1-0.9,2.1-0.3C245.3,72.7,245.5,76.8,245.5,76.8z"/>
		</g>
		<path class="st80" d="M234.5,64.5c0,0.9-0.6,1.2-1.4,0.8c-0.8-0.4-1.4-1.5-1.4-2.4c0-0.9,0.6-1.2,1.4-0.8
			C233.8,62.6,234.5,63.6,234.5,64.5z"/>
		<path class="st80" d="M235,68c-0.5,0.7-0.7,1.8-0.7,2.3l-3.9-2.3c0,0,0.2-3.8,2.7-2.4C234,66.2,234.6,67.1,235,68z"/>
		<path class="st80" d="M239.4,66.7c0,1-0.7,1.4-1.6,0.9c-0.9-0.5-1.6-1.7-1.6-2.7s0.7-1.4,1.6-0.9
			C238.7,64.5,239.4,65.7,239.4,66.7z"/>
		<path class="st80" d="M240.9,74.3l-6.2-3.6c0,0,0-0.1,0-0.2c0,0,0.3-1.3,0.7-2.3c0.5-0.6,1.2-0.9,2.3-0.3c1.3,0.7,2,2.1,2.5,3.3
			c0.4,1.4,0.6,2.8,0.6,2.8C240.9,74.2,240.9,74.3,240.9,74.3z"/>
	</g>
	<g>
		<g>
			<path class="st80" d="M246.2,95.9c-2.1-1.2-3.7-4.1-3.7-6.5c0-1.3,0.5-2.2,1.3-2.7c0.8-0.5,1.9-0.4,3,0.2
				c2.1,1.2,3.7,4.1,3.7,6.5c0,1.3-0.5,2.2-1.3,2.7c-0.4,0.2-0.8,0.3-1.2,0.3C247.5,96.4,246.9,96.2,246.2,95.9z M244.3,87.6
				c-0.5,0.3-0.7,0.9-0.7,1.7c0,2,1.5,4.5,3.2,5.5c0.7,0.4,1.4,0.5,1.9,0.2c0.5-0.3,0.7-0.9,0.7-1.7c0-2-1.5-4.5-3.2-5.5
				c-0.5-0.3-0.9-0.4-1.3-0.4C244.7,87.5,244.5,87.5,244.3,87.6z"/>
		</g>
		<g>
			<path class="st80" d="M242.7,96.4l-2.6-0.5l4.1-3.5l1.9,2.4l-3.4,5.6V96.4z M244.1,93.4l-2.5,2.1l1.8,0.3v2.1l1.9-3.1L244.1,93.4
				z"/>
		</g>
		<g>
			<path class="st80" d="M247,95.5l2.2-0.1l4.3,8.6l-3.1-3v4.2L247,95.5z M251.1,100.7l-2.3-4.6l-0.9,0.1l1.8,5.1v-1.9L251.1,100.7z
				"/>
		</g>
	</g>
	<g>
		<path class="st80" d="M251.4,47.4l1.2,3.5c0.1,0.4,0.4,0.8,0.8,1.1l2.7,2c0.8,0.6,1.2,2,0.6,2.3l-2,1.1c-0.2,0.1-0.3,0.5-0.3,0.9
			l0.5,3.4c0.1,1-0.7,1.3-1.5,0.4l-2.4-2.9c-0.3-0.4-0.6-0.6-0.9-0.5l-2.4,0.1c-0.7,0-1.6-1.2-1.5-2.1l0.5-2.9
			c0.1-0.3-0.1-0.8-0.3-1.2l-2-3.4c-0.6-1-0.3-2,0.6-1.7l2.7,1.1c0.3,0.1,0.6,0.1,0.8-0.2l1.2-2.1C250,45.7,251.1,46.4,251.4,47.4z"
			/>
	</g>
	<g>
		<g>
			<rect x="232" y="30.5" transform="matrix(0.5 -0.866 0.866 0.5 82.4809 220.5978)" class="st80" width="0.5" height="16.7"/>
		</g>
		<g>
			<g>
				<rect x="237.8" y="32.7" class="st80" width="0.5" height="0.4"/>
			</g>
			<g>
				<path class="st80" d="M238.3,41l-0.5,0v-0.8l0.5,0V41z M238.3,39.4h-0.5v-0.8h0.5V39.4z M238.3,37.9l-0.5,0v-0.8h0.5V37.9z
					 M238.3,36.3h-0.5v-0.8l0.5,0V36.3z M238.3,34.7h-0.5v-0.8h0.5V34.7z"/>
			</g>
			<g>
				<rect x="237.8" y="41.8" class="st80" width="0.5" height="0.4"/>
			</g>
		</g>
		<g>
			<g>
				<rect x="232" y="31" class="st80" width="0.5" height="0.4"/>
			</g>
			<g>
				<path class="st80" d="M232.6,37.7H232v-0.8h0.5V37.7z M232.6,36.1H232v-0.8h0.5V36.1z M232.6,34.6H232v-0.8h0.5V34.6z M232.6,33
					H232v-0.8h0.5V33z"/>
			</g>
			<g>
				<rect x="232" y="38.5" class="st80" width="0.5" height="0.4"/>
			</g>
		</g>
		<g>
			<g>
				<rect x="226" y="31.2" class="st80" width="0.5" height="0.4"/>
			</g>
			<g>
				<path class="st80" d="M226.6,34.3H226v-0.7h0.5V34.3z M226.6,33H226v-0.7h0.5V33z"/>
			</g>
			<g>
				<rect x="226" y="35" class="st80" width="0.5" height="0.4"/>
			</g>
		</g>
		<g>
			<path class="st80" d="M226.7,31.6c-0.2,0-0.4-0.1-0.6-0.2c-0.7-0.4-1.2-1.3-1.2-2c0-0.4,0.2-0.7,0.4-0.9c0.3-0.2,0.6-0.1,1,0.1
				c0.7,0.4,1.2,1.3,1.2,2c0,0.4-0.2,0.7-0.4,0.9C227,31.6,226.9,31.6,226.7,31.6z M225.8,29c-0.1,0-0.1,0-0.1,0
				c-0.1,0.1-0.2,0.2-0.2,0.4c0,0.6,0.4,1.3,0.9,1.6c0.2,0.1,0.4,0.1,0.5,0.1c0.1-0.1,0.2-0.2,0.2-0.4c0-0.6-0.4-1.3-0.9-1.6
				C226,29,225.9,29,225.8,29z"/>
		</g>
		<g>
			<path class="st80" d="M232.7,31.5c-0.2,0-0.4-0.1-0.6-0.2c-0.7-0.4-1.2-1.3-1.2-2c0-0.4,0.2-0.7,0.4-0.9c0.3-0.2,0.6-0.1,1,0.1
				c0.7,0.4,1.2,1.3,1.2,2c0,0.4-0.2,0.7-0.4,0.9C233,31.4,232.9,31.5,232.7,31.5z M231.8,28.8c-0.1,0-0.1,0-0.1,0
				c-0.1,0.1-0.2,0.2-0.2,0.4c0,0.6,0.4,1.3,0.9,1.6c0.2,0.1,0.4,0.1,0.5,0.1c0.1-0.1,0.2-0.2,0.2-0.4c0-0.6-0.4-1.3-0.9-1.6
				C232,28.8,231.9,28.8,231.8,28.8z"/>
		</g>
		<g>
			<path class="st80" d="M238.5,33.1c-0.2,0-0.4-0.1-0.6-0.2c-0.7-0.4-1.2-1.3-1.2-2c0-0.4,0.2-0.7,0.4-0.9c0.3-0.2,0.6-0.1,1,0.1
				c0.7,0.4,1.2,1.3,1.2,2c0,0.4-0.2,0.7-0.4,0.9C238.8,33.1,238.6,33.1,238.5,33.1z M237.6,30.5c-0.1,0-0.1,0-0.1,0
				c-0.1,0.1-0.2,0.2-0.2,0.4c0,0.6,0.4,1.3,0.9,1.6c0.2,0.1,0.4,0.1,0.5,0.1c0.1-0.1,0.2-0.2,0.2-0.4c0-0.6-0.4-1.3-0.9-1.6
				C237.8,30.5,237.7,30.5,237.6,30.5z"/>
		</g>
		<g>
			
				<rect x="227.2" y="29.7" transform="matrix(0.9998 -2.053937e-02 2.053937e-02 0.9998 -0.5667 4.7158)" class="st80" width="4.2" height="0.5"/>
		</g>
		<g>
			
				<rect x="234.9" y="28.8" transform="matrix(0.273 -0.962 0.962 0.273 141.4403 248.5282)" class="st80" width="0.5" height="3.8"/>
		</g>
	</g>
	<g id="thoughts_00000102540435695318784280000001107158051875542664_">
		
			<ellipse transform="matrix(0.7071 -0.7071 0.7071 0.7071 11.2685 77.923)" class="st80" cx="99.7" cy="25.4" rx="15.7" ry="15.7"/>
		<circle class="st80" cx="110.8" cy="60.5" r="4.3"/>
		<circle class="st80" cx="106.5" cy="48.4" r="5.8"/>
		<circle class="st80" cx="115.9" cy="69.1" r="2.3"/>
		<circle class="st21" cx="91.1" cy="25.7" r="2.9"/>
		<circle class="st21" cx="99.9" cy="25.7" r="2.9"/>
		<circle class="st21" cx="108.3" cy="25.7" r="2.9"/>
	</g>
</g>
</svg>
